<?xml version="1.0" encoding="UTF-8"?>
<svg width="200px" height="200px" viewBox="0 0 200 200" version="1.1" xmlns="http://www.w3.org/2000/svg" xmlns:xlink="http://www.w3.org/1999/xlink">
    <!-- Generator: Sketch 48.2 (47327) - http://www.bohemiancoding.com/sketch -->
    <title>venus</title>
    <desc>Created with Sketch.</desc>
    <defs>
        <ellipse id="path-1" cx="153.568697" cy="125.939173" rx="9" ry="7.5"></ellipse>
        <ellipse id="path-2" cx="93.8293471" cy="53.4833544" rx="19.5" ry="16"></ellipse>
    </defs>
    <g id="intrepid-icon-set" stroke="none" stroke-width="1" fill="none" fill-rule="evenodd" transform="translate(-400.000000, 0.000000)">
        <g id="venus" transform="translate(400.000000, -13.000000)">
            <circle id="Oval" fill="#F47138" fill-rule="nonzero" cx="100" cy="113" r="96.6666667"></circle>
            <path d="M157.6182,35.3818 C186.184088,73.8633384 182.24193,127.465256 148.353593,161.353593 C114.465256,195.24193 60.8633384,199.184088 22.3818,170.6182 C44.9954224,201.081352 83.3383375,215.499872 120.421255,207.485084 C157.504172,199.470297 186.470297,170.504172 194.485084,133.421255 C202.499872,96.3383375 188.081352,57.9954224 157.6182,35.3818 Z" id="Shape" fill="#A31B1A" opacity="0.246773098"></path>
            <path d="M100,213 C44.771525,213 6.76353751e-15,168.228475 0,113 C-6.76353751e-15,57.771525 44.771525,13 100,13 C155.228475,13 200,57.771525 200,113 C199.937433,168.202538 155.202538,212.937433 100,213 Z M100,19.6666667 C48.4534233,19.6666667 6.66666667,61.4534233 6.66666667,113 C6.66666667,164.546577 48.4534233,206.333333 100,206.333333 C151.546577,206.333333 193.333333,164.546577 193.333333,113 C193.27556,61.477373 151.522627,19.7244403 100,19.6666667 Z" id="Shape" fill="#A31B1A" fill-rule="nonzero"></path>
            <circle id="Oval" fill="#FF9959" fill-rule="nonzero" cx="66.6666667" cy="76.3333333" r="43.3333333"></circle>
            <g id="Oval" fill-rule="nonzero" transform="translate(153.568697, 125.939173) rotate(-29.220760) translate(-153.568697, -125.939173) ">
                <use fill="#F47138" fill-rule="evenodd" xlink:href="#path-1"></use>
                <ellipse stroke="#A31B1A" stroke-width="6" cx="153.568697" cy="125.939173" rx="12" ry="10.5"></ellipse>
            </g>
            <path d="M183.73171,124.104015 C183.73171,110.151698 170.159005,98.84111 153.416224,98.84111 C149.997631,98.84111 146.711201,99.3126569 143.645486,100.181956 M128.151141,110.137222 C124.960014,114.137926 123.100739,118.94003 123.100739,124.104015 M153.416224,149.36692 C165.479118,149.36692 175.896439,143.495636 180.777599,134.995224" id="Oval" stroke="#A31B1A" stroke-width="6" opacity="0.5" stroke-linecap="round" fill-rule="nonzero" transform="translate(153.416224, 124.104015) rotate(-29.220760) translate(-153.416224, -124.104015) "></path>
            <path d="M108.841618,123.956979 C108.841618,141.165497 122.068018,155.799689 140.511483,161.185107 M156.165846,163.393836 C164.124824,163.393836 171.624911,161.756546 178.207548,158.864098 M188.88774,95.4663992 C180.38862,88.6858141 168.861003,84.5201224 156.165846,84.5201224 C148.958172,84.5201224 142.126843,85.8628913 136.012429,88.2646198" id="Oval" stroke="#A31B1A" stroke-width="6" opacity="0.5" stroke-linecap="round" fill-rule="nonzero" transform="translate(148.864679, 123.956979) rotate(-29.220760) translate(-148.864679, -123.956979) "></path>
            <path d="M120.2169,173.815898 C105.920948,173.815898 94.1004455,182.648111 92.1843243,194.121761 M143.955467,210.253283 C146.843254,206.556304 148.521115,202.14281 148.521115,197.402744 M142.766761,183.145206 C139.641432,179.717835 135.416661,177.024672 130.530441,175.430711" id="Oval" stroke="#A31B1A" stroke-width="6" opacity="0.5" stroke-linecap="round" fill-rule="nonzero" transform="translate(120.352720, 192.034591) rotate(-29.220760) translate(-120.352720, -192.034591) "></path>
            <g id="Oval" fill-rule="nonzero" transform="translate(93.829347, 53.483354) scale(-1, 1) rotate(-29.220760) translate(-93.829347, -53.483354) ">
                <use fill="#F47138" fill-rule="evenodd" xlink:href="#path-2"></use>
                <ellipse stroke="#A31B1A" stroke-width="6" cx="93.8293471" cy="53.4833544" rx="16.5" ry="13"></ellipse>
            </g>
            <path d="M47.9263749,93.4600897 C44.8073361,91.6272224 41.5138629,89.9593414 38.0682773,88.4735165 M26.5678183,84.3660612 C18.4230017,82.0197335 9.67092511,80.6208809 0.541345714,80.3452001" id="Oval" stroke="#A31B1A" stroke-width="6" opacity="0.5" stroke-linecap="round" fill-rule="nonzero" transform="translate(24.233857, 86.902645) rotate(-53.220760) translate(-24.233857, -86.902645) "></path>
            <ellipse id="Oval" stroke="#A31B1A" stroke-width="6" fill-rule="nonzero" transform="translate(53.972625, 142.998795) rotate(-53.220760) translate(-53.972625, -142.998795) " cx="53.9726251" cy="142.998795" rx="12.8847376" ry="10.558917"></ellipse>
            <path d="M30.8456698,125.709728 C20.6853079,130.502421 13.9133531,139.092048 13.9133531,148.891192 C13.9133531,163.92284 29.8483142,176.108399 49.5050849,176.108399 M69.0294676,171.651381 C78.7073838,166.786723 85.0968167,158.409555 85.0968167,148.891192 M76.3998878,131.06386 C69.8740788,125.31173 60.2451162,121.673985 49.5050849,121.673985" id="Oval" stroke="#A31B1A" stroke-width="6" opacity="0.5" stroke-linecap="round" fill-rule="nonzero" transform="translate(49.505085, 148.891192) rotate(-53.220760) translate(-49.505085, -148.891192) "></path>
            <path d="M91.4890492,104.52352 C80.8406569,91.6388625 62.0484733,83.082011 40.6427886,83.082011 C35.9580556,83.082011 31.3985024,83.4918615 27.0221005,84.2672312 M30.442722,174.348988 C33.7579937,174.782371 37.1659155,175.008124 40.6427886,175.008124 C63.5257527,175.008124 83.4220346,165.229443 93.5755141,150.838524 M98.5806287,141.32118 C99.9934591,137.413366 100.748324,133.296629 100.748324,129.045068" id="Oval" stroke="#A31B1A" stroke-width="6" opacity="0.5" stroke-linecap="round" fill-rule="nonzero" transform="translate(63.885212, 129.045068) rotate(-53.220760) translate(-63.885212, -129.045068) "></path>
            <path d="M60.8592061,28.4347687 C54.3891151,34.4579413 50.464027,42.3656994 50.464027,51.0256655 M52.8574026,62.4723157 C58.5943207,75.7199416 74.0075842,85.2057703 92.1210297,85.2057703 C98.6468247,85.2057703 104.822144,83.9745381 110.320766,81.7797431 M122.034851,74.8130646 C129.303759,68.6601619 133.778032,60.2716409 133.778032,51.0256655 M104.103536,18.2807336 C100.308698,17.347152 96.286254,16.8455607 92.1210297,16.8455607 C82.8596512,16.8455607 74.3041711,19.325405 67.3870711,23.5199803" id="Oval" stroke="#A31B1A" stroke-width="6" opacity="0.5" stroke-linecap="round" fill-rule="nonzero" transform="translate(92.121030, 51.025666) scale(-1, 1) rotate(-29.220760) translate(-92.121030, -51.025666) "></path>
            <path d="M157.167558,28.3597258 C135.423445,28.3597258 122.38596,43.99524 122.38596,61.8365632" id="Oval" stroke="#A31B1A" stroke-width="6" opacity="0.5" stroke-linecap="round" fill-rule="nonzero" transform="translate(139.776759, 45.098145) scale(-1, 1) rotate(-29.220760) translate(-139.776759, -45.098145) "></path>
        </g>
    </g>
</svg>