<?xml version="1.0" encoding="UTF-8"?>
<svg width="200px" height="200px" viewBox="0 0 200 200" version="1.1" xmlns="http://www.w3.org/2000/svg" xmlns:xlink="http://www.w3.org/1999/xlink">
    <!-- Generator: Sketch 48.2 (47327) - http://www.bohemiancoding.com/sketch -->
    <title>mercury</title>
    <desc>Created with Sketch.</desc>
    <defs>
        <circle id="path-1" cx="97" cy="97" r="96.6666667"></circle>
    </defs>
    <g id="intrepid-icon-set" stroke="none" stroke-width="1" fill="none" fill-rule="evenodd" transform="translate(-1400.000000, 0.000000)">
        <g id="mercury" transform="translate(1400.000000, 0.000000)">
            <g id="Group-6" transform="translate(3.000000, 3.000000)">
                <mask id="mask-2" fill="white">
                    <use xlink:href="#path-1"></use>
                </mask>
                <use id="Oval" fill="#BD7CEB" fill-rule="nonzero" xlink:href="#path-1"></use>
                <path d="M154.6182,19.3818 C183.184088,57.8633384 179.24193,111.465256 145.353593,145.353593 C111.465256,179.24193 57.8633384,183.184088 19.3818,154.6182 C41.9954224,185.081352 80.3383375,199.499872 117.421255,191.485084 C154.504172,183.470297 183.470297,154.504172 191.485084,117.421255 C199.499872,80.3383375 185.081352,41.9954224 154.6182,19.3818 Z" id="Shape" fill="#7C3DB4" opacity="0.351166214" mask="url(#mask-2)"></path>
                <circle id="Oval" fill="#D194FC" fill-rule="nonzero" mask="url(#mask-2)" cx="63.6666667" cy="60.3333333" r="43.3333333"></circle>
                <g id="Group-4" mask="url(#mask-2)" opacity="0.5" stroke="#6257D3" stroke-linecap="round" stroke-width="6">
                    <g transform="translate(-18.000000, 3.000000)">
                        <path d="M44.0195312,0.21484375 C64.9544271,9.94661458 85.0143229,14.6341146 104.199219,14.2773438 C132.976562,13.7421875 145.986328,9.838572 159.203125,9.838572 C172.419922,9.838572 190.025391,14.2773438 202.712891,14.2773438" id="Path-2"></path>
                        <path d="M28.3066406,29.5878906 C48.5501501,34.2272135 69.125676,34.2272135 90.0332181,29.5878906 C121.394531,22.6289063 143.662109,40.5351563 164.685547,40.5351562 C185.708984,40.5351562 187.326172,24.9726562 216.539062,24.9726562" id="Path-9"></path>
                        <path d="M13.7734375,53.3652344 C28.9596354,50.4355469 43.8951823,53.2851563 58.5800781,61.9140625 C80.6074219,74.8574219 85.7890625,45.5449219 103.386719,45.5449219 C120.984375,45.5449219 141.830078,61.9140625 163.267578,61.9140625 C184.705078,61.9140625 206.236328,45.5449219 237,45.5449219" id="Path-10"></path>
                        <path d="M7.69921875,80.609375 C23.3288046,85.3125 39.8873983,86.5423177 57.375,84.2988281 C83.6064025,80.9335938 86.5917969,72.3085938 121.322266,72.3085938 C156.052734,72.3085938 167.884766,80.609375 202.441406,80.609375 C225.479167,80.609375 236.998047,77.8424479 236.998047,72.3085938" id="Path-11"></path>
                        <path d="M0.8671875,103.542969 C20.3958333,110.054688 41.9707031,113.310547 65.5917969,113.310547 C101.023438,113.310547 112.466797,91.046875 142.712891,91.046875 C172.958984,91.046875 192.025391,113.310547 221.617188,113.310547" id="Path-12"></path>
                        <path d="M19.8183594,153.005859 C39.6139238,135.126953 55.2480384,126.1875 66.7207031,126.1875 C83.9297003,126.1875 102.454973,135.240234 117.542969,135.240234 C132.630965,135.240234 151.511141,117.474609 178.873047,117.474609 C206.234953,117.474609 213.970801,138.453125 234.244141,138.453125" id="Path-13"></path>
                        <path d="M31.3398438,156.523438 C59.3203125,168.275627 81.0201823,169.457682 94.2441406,164.333984 C114.080078,156.648438 124.035156,148.925781 139.410156,148.925781 C154.785156,148.925781 175.396484,156.523438 203.6875,156.523438" id="Path-14"></path>
                        <path d="M71.671875,190.171875 C87.7916667,178.950521 105.71875,173.339844 125.453125,173.339844 C155.054688,173.339844 169.304808,187.585937 191.556641,187.384766" id="Path-15"></path>
                    </g>
                </g>
            </g>
            <path d="M100,200 C44.771525,200 6.76353751e-15,155.228475 0,100 C-6.76353751e-15,44.771525 44.771525,1.01453063e-14 100,0 C155.228475,-1.01453063e-14 200,44.771525 200,100 C199.937433,155.202538 155.202538,199.937433 100,200 Z M100,6.66666667 C48.4534233,6.66666667 6.66666667,48.4534233 6.66666667,100 C6.66666667,151.546577 48.4534233,193.333333 100,193.333333 C151.546577,193.333333 193.333333,151.546577 193.333333,100 C193.27556,48.477373 151.522627,6.72444033 100,6.66666667 Z" id="Shape" fill="#6A60CF" fill-rule="nonzero"></path>
        </g>
    </g>
</svg>