<?xml version="1.0" encoding="UTF-8"?>
<svg width="185px" height="185px" viewBox="0 0 185 185" version="1.1" xmlns="http://www.w3.org/2000/svg" xmlns:xlink="http://www.w3.org/1999/xlink">
    <!-- Generator: Sketch 48.2 (47327) - http://www.bohemiancoding.com/sketch -->
    <title>uranus</title>
    <desc>Created with Sketch.</desc>
    <defs></defs>
    <g id="intrepid-icon-set" stroke="none" stroke-width="1" fill="none" fill-rule="evenodd" transform="translate(-7.000000, -7.000000)">
        <g id="uranus" transform="translate(0.000000, -1.000000)">
            <g id="Group-3" transform="translate(99.859111, 100.818510) rotate(-39.000000) translate(-99.859111, -100.818510) translate(28.859111, 29.818510)">
                <path d="M139.522581,73.0494624 C139.423433,76.8875274 138.996068,80.7100713 138.245161,84.4752688 L115.606452,83.1741935 C109.530037,82.9218483 103.511391,81.8882632 97.6989247,80.0989247 L96.5634409,79.744086 C82.9653134,75.5806454 68.4325361,75.5806454 54.8344086,79.744086 L53.6989247,80.0989247 C47.8864583,81.8882632 41.8678129,82.9218483 35.7913978,83.1741935 L3.69032258,84.4752688 C2.93941572,80.7100713 2.51205055,76.8875274 2.41290323,73.0494624 C24.0829986,63.8061236 47.4087111,59.0733703 70.9677419,59.1397849 C94.5267728,59.0733703 117.852485,63.8061236 139.522581,73.0494624 Z" id="Shape" fill="#51DDCB" fill-rule="nonzero"></path>
                <path d="M139.522581,73.0494624 C117.852485,63.8061236 94.5267728,59.0733703 70.9677419,59.1397849 C47.4087111,59.0733703 24.0829986,63.8061236 2.41290323,73.0494624 C2.3655914,72.3634409 2.3655914,71.6774194 2.3655914,70.9677419 C2.3508992,64.4411832 3.28319038,57.9470182 5.13333333,51.688172 C20.7462366,43.2430108 44.4494624,37.8494624 70.9677419,37.8494624 C97.4860215,37.8494624 121.189247,43.2430108 136.802151,51.688172 C138.652293,57.9470182 139.584585,64.4411832 139.569892,70.9677419 C139.569892,71.6774194 139.569892,72.3634409 139.522581,73.0494624 Z" id="Shape" fill="#21B3BE" fill-rule="nonzero"></path>
                <path d="M135.21434,94.0385417 C132.381995,98.855354 123.75526,115.166895 119.817204,119.131183 C104.191691,124.942724 87.638573,127.860562 70.9677419,127.741935 C54.2969109,127.860562 37.7437931,124.942724 22.1182796,119.131183 C17.9901134,114.956881 9.92843897,98.2309595 7.00529234,93.1396169 L31.299916,94.0385417 C37.3763311,94.2908869 43.3949764,95.324472 49.2074429,97.1138105 L50.3429267,97.4686492 C63.9410542,101.63209 78.4738315,101.63209 92.071959,97.4686492 L93.2074429,97.1138105 C99.0199093,95.324472 105.038555,94.2908869 111.11497,94.0385417 L135.21434,94.0385417 Z" id="Shape" fill="#51DDCB" fill-rule="nonzero"></path>
                <path d="M8.79611895,98.3984375 C5.08289539,91.9705344 5.14659576,91.7543646 3.69032258,84.4752688 L35.7913978,83.1741935 C41.8678129,82.9218483 47.8864583,81.8882632 53.6989247,80.0989247 L54.8344086,79.744086 C68.4325361,75.5806454 82.9653134,75.5806454 96.5634409,79.744086 L97.6989247,80.0989247 C103.511391,81.8882632 109.530037,82.9218483 115.606452,83.1741935 L138.245161,84.4752688 C136.735389,92.0342316 137.05455,90.2213335 133.115801,96.8473118 L115.606452,96.8473118 C109.530037,97.0996571 103.511391,98.1332422 97.6989247,99.9225806 L96.5634409,100.277419 C82.9653134,104.44086 68.4325361,104.44086 54.8344086,100.277419 L53.6989247,99.9225806 C47.8864583,98.1332422 41.8678129,97.0996571 35.7913978,96.8473118 L8.79611895,98.3984375 Z" id="Shape" fill="#21B3BE" fill-rule="nonzero"></path>
                <path d="M126.133333,30.1849462 C130.940482,36.6609442 134.553388,43.9428319 136.802151,51.688172 C121.189247,43.2430108 97.4860215,37.8494624 70.9677419,37.8494624 C44.4494624,37.8494624 20.7462366,43.2430108 5.13333333,51.688172 C7.38209612,43.9428319 10.9950019,36.6609442 15.8021505,30.1849462 C33.1811165,22.5525644 51.9878257,18.7138021 70.9677419,18.9247312 C89.9476582,18.7138021 108.754367,22.5525644 126.133333,30.1849462 Z" id="Shape" fill="#51DDCB" fill-rule="nonzero"></path>
                <path d="M70.9677419,2.3655914 C92.7309169,2.35107593 113.206655,12.6767484 126.133333,30.1849462 C108.754367,22.5525644 89.9476582,18.7138021 70.9677419,18.9247312 C51.9878257,18.7138021 33.1811165,22.5525644 15.8021505,30.1849462 C28.7288286,12.6767484 49.2045669,2.35107593 70.9677419,2.3655914 Z" id="Shape" fill="#21B3BE" fill-rule="nonzero"></path>
                <path d="M136.802151,51.688172 C134.553401,43.9428267 130.940494,36.6609368 126.133333,30.1849462 C122.10748,24.75749 117.306109,19.9509219 111.883011,15.9192 C120.663033,27.7998221 125.372194,42.0931199 125.376344,56.7741935 C125.376344,57.483871 125.376344,58.1698925 125.329032,58.855914 C125.229916,62.6939811 124.802551,66.5165277 124.051613,70.2817204 C122.541789,77.840668 119.758054,85.0879765 115.819355,91.7139785 C112.98701,96.5307908 109.561712,100.973347 105.623656,104.937634 C81.6227506,129.291153 43.3480507,132.24129 15.898572,111.853465 C27.8330041,127.938889 46.2030729,138.003047 66.1834024,139.402327 C86.163732,140.801606 105.757248,133.396146 119.817204,119.131183 C123.75526,115.166895 127.180558,110.724339 130.012903,105.907527 C133.951603,99.2815248 136.735337,92.0342164 138.245161,84.4752688 C138.996099,80.7100761 139.423465,76.8875295 139.522581,73.0494624 C139.569892,72.3634409 139.569892,71.6774194 139.569892,70.9677419 C139.584529,64.4411872 138.652239,57.9470301 136.802151,51.688172 Z" id="Shape" fill="#147691" fill-rule="nonzero" opacity="0.2"></path>
                <circle id="Oval" fill="#FFFFFF" fill-rule="nonzero" opacity="0.273607337" cx="47.311828" cy="44.9462366" r="30.7526882"></circle>
                <path d="M70.9677419,139.56989 C46.9953377,137.926449 28.8422897,124.235347 15.9511089,111.15877 C31.5766224,116.970311 54.2969109,123.703681 70.9677419,123.585055 C87.638573,123.703681 113.05619,116.970311 128.681704,111.15877 C106.187332,131.195144 86.9493448,140.665518 70.9677419,139.56989 Z" id="Shape" fill="#21B3BE" fill-rule="nonzero"></path>
                <path d="M10.2244834,98.6105091 C17.335351,97.9546848 22.4309539,97.5591513 25.5112923,97.4239085 M37.7232237,97.3824401 C43.0839661,97.6361866 47.4417868,98.2966559 50.796686,99.3638483 C53.2800602,100.153809 56.0499019,100.862945 58.9608137,101.463203 M74.4094161,103.447373 C80.57394,103.749929 86.2741291,103.375805 90.2073463,102.073652 C93.1566707,101.097232 96.3058442,100.200825 99.5372261,99.4357008 M119.654801,96.8266129 C121.393505,96.8266129 123.0247,96.8266129 124.548387,96.8266129 C127.203893,96.8266129 130.452423,96.8266129 134.293977,96.8266129" id="Path-3" stroke="#147691" stroke-width="4.96774194" opacity="0.5" stroke-linecap="round"></path>
                <path d="M5.47089214,84.1653856 C24.0065944,84.2078923 35.6280242,83.8188634 40.3351815,82.9982989 C42.6793561,82.589656 45.8883508,81.7461585 49.5087084,80.8015937 M61.6729527,77.8933176 C65.531922,77.1264361 69.3328452,76.5914504 72.663968,76.5914504 C79.2052935,76.5914504 85.56666,77.474948 91.7057793,78.8004016 M102.225428,81.4867692 C111.515688,84.1653856 123.895193,83.6102571 125.012034,83.6376323 C126.128875,83.6650076 134.842868,83.7779738 137.923104,84.1653856" id="Path-4" stroke="#147691" stroke-width="4.96774194" opacity="0.5" stroke-linecap="round"></path>
                <path d="M3.58338584,72.2914567 C12.9795263,68.8757231 20.0351149,66.5349363 24.7501516,65.2690962 M46.540459,60.825197 C55.25444,59.6076325 63.9939253,59.0545301 72.7589151,59.1658896 C86.3031462,59.3379696 99.3738678,60.8960859 111.97108,63.8402386 M121.544292,66.5256835 C124.690964,67.5131403 130.273121,69.4350647 138.290764,72.2914567" id="Path-5" stroke="#147691" stroke-width="4.96774194" opacity="0.5" stroke-linecap="round"></path>
                <path d="M7.20696825,50.9782636 C17.7079464,46.3727648 26.0504799,43.3499981 32.2345688,41.9099636 M43.7213895,39.7456228 C52.2858915,38.484365 61.532838,37.8537361 71.4622291,37.8537361 M87.0533791,38.4450359 C104.559166,39.815096 120.780536,44.2431431 135.71749,51.7291772" id="Path-6" stroke="#147691" stroke-width="4.96774194" opacity="0.5" stroke-linecap="round"></path>
                <path d="M17.20344,30.1072329 C33.859375,22.4384661 52.7834131,18.7526252 73.9755544,19.0497102 C95.1676957,19.3467952 112.434255,23.0409179 125.775231,30.1320784" id="Path-7" stroke="#147691" stroke-width="4.96774194" opacity="0.5" stroke-linecap="round"></path>
                <path d="M17.030872,112.31754 C40.7782678,119.842154 59.5546875,123.604461 73.360131,123.604461 C87.1655746,123.604461 104.450563,119.842154 125.215096,112.31754" id="Path-8" stroke="#147691" stroke-width="4.96774194" opacity="0.5" stroke-linecap="round"></path>
                <path d="M70.9677419,141.935484 C32.5643734,142.044908 1.0868835,111.496368 0.0462,73.1069462 C0.0023655914,72.4693484 -7.81597009e-14,71.7312366 -7.81597009e-14,70.9677419 C0.00353763474,55.7791907 4.87524708,40.9916622 13.9002151,28.7751957 C27.2837198,10.6768638 48.4587513,-0.000153311254 70.9680342,7.52899024e-05 C93.4773171,0.000303891059 114.652132,10.6777511 128.035269,28.7763548 C137.05882,40.9931135 141.930385,55.779798 141.935484,70.9677419 C141.935484,71.7312366 141.933118,72.4693484 141.884671,73.2085957 C141.556046,85.1660107 138.168661,96.8397242 132.045751,107.1158 C129.11507,112.099795 125.570532,116.696322 121.495213,120.797647 C108.190412,134.36619 89.9709078,141.9882 70.9677419,141.935484 Z M70.9677419,4.7311828 C49.969669,4.78185055 30.2267266,14.73811 17.7026667,31.5924731 C9.28007841,42.9930655 4.73382067,56.7933463 4.7311828,70.9677419 C4.7311828,71.6226796 4.7288172,72.2568 4.77276989,72.8897849 C5.53777951,99.4035301 22.0491059,122.903025 46.733811,132.610201 C71.418516,142.317377 99.5139216,136.359327 118.134039,117.468716 C121.933812,113.643072 125.239204,109.356341 127.972959,104.708716 C133.701304,95.0977987 136.864136,84.176241 137.158101,72.9915527 C137.206667,72.2568 137.204301,71.6226796 137.204301,70.9677419 C137.216527,64.6694012 136.317021,58.4024531 134.533761,52.3618215 L134.531396,52.3468 C132.363347,44.8703542 128.875547,37.8419512 124.232746,31.5935849 C111.709163,14.7385518 91.9660686,4.78179051 70.9677419,4.7311828 Z" id="Shape" fill="#147691" fill-rule="nonzero"></path>
            </g>
            <g id="Group-2" transform="translate(99.500000, 100.500000) scale(-1, 1) translate(-99.500000, -100.500000) translate(7.000000, 8.000000)" fill-rule="nonzero">
                <path d="M178.955115,6.11612903 C171.074009,-1.76497696 147.265407,8.293702 118.27831,29.7339478 C121.876262,31.2238895 125.338623,33.0221918 128.626697,35.1087558 C141.731459,27.6374808 151.795361,25.0460829 155.910261,29.1609831 C164.660184,37.9109063 143.382458,73.3754224 108.381843,108.376037 C73.3812289,143.376651 37.9139478,164.65745 29.1640246,155.90722 C25.0491551,151.79232 27.6411367,141.728111 35.1127189,128.623349 C33.0261333,125.335299 31.2276433,121.873055 29.7373272,118.275269 C8.29766513,147.262366 -1.76162826,171.071275 6.11917051,178.952074 C18.051275,190.883871 66.415023,161.865131 114.143748,114.136713 C161.871859,66.4086022 190.886912,18.0482335 178.955115,6.11612903 Z" id="Shape" fill="#51DDCB"></path>
                <path d="M178.955023,6.11600614 C177.147865,4.47169655 174.800332,3.54738797 172.357235,3.51821813 C172.951091,12.1649462 167.080276,26.1672197 156.3047,42.9339785 C151.094255,58.5299232 133.194409,83.5635023 108.381874,108.376037 C83.5680492,133.189708 58.5317972,151.09149 42.9354839,156.30169 C26.1694624,167.076498 12.1683257,172.947496 3.52159754,172.353917 C3.55058631,174.79707 4.47484267,177.144703 6.11920123,178.951889 C18.0513364,190.883656 66.4149923,161.865038 114.143779,114.136498 C161.87192,66.4086329 190.886974,18.0481413 178.955023,6.11600614 Z" id="Shape" fill="#32CEBA"></path>
                <path d="M13.913149,184.67957 C10.2458612,184.898012 6.64761355,183.614467 3.94651306,181.124332 C-8.77431644,168.405038 14.9369232,134.030777 26.1876452,118.821315 C26.847078,117.930214 27.9355021,117.463571 29.035601,117.600303 C30.1357,117.737036 31.0767724,118.455928 31.4979985,119.481346 C32.9245459,122.915329 34.6429565,126.220649 36.6343426,129.360977 C37.2376057,130.320366 37.2641225,131.533847 36.7033441,132.518673 C28.6538203,146.639072 29.2801536,151.67745 31.3352995,153.735576 C37.0476805,159.44043 68.2886636,144.122949 106.211091,106.203533 C121.303739,91.5182085 134.629824,75.1206204 145.918587,57.3439324 C155.282181,41.7369278 155.981229,33.5794163 153.737081,31.3337634 C151.672965,29.2741321 146.76488,28.4738323 132.645956,36.5233561 C131.661344,37.0870828 130.445813,37.0605338 129.486754,36.4543546 C126.34942,34.4626348 123.045907,32.7456336 119.613052,31.3224959 C118.586467,30.9018283 117.866342,29.9604647 117.728964,28.8595714 C117.591585,27.7586781 118.058286,26.6692127 118.950011,26.0091626 C134.161071,14.7584406 168.41404,-8.76980031 181.12596,3.9435023 C196.567957,19.3884793 159.260553,73.3634409 116.315822,116.308203 C80.1333641,152.493518 36.1145622,184.676559 13.913149,184.67957 Z M29.1360983,124.323195 C8.07477727,153.824086 3.37047619,171.858249 8.29078341,176.780061 C17.4743779,185.962151 62.3212289,161.615699 111.971275,111.963902 C161.615607,62.3182488 185.971152,17.4803687 176.781567,8.28777266 C171.86424,3.37345622 153.836098,8.06577573 124.326206,29.1346237 C125.787302,29.8771736 127.2434,30.6817204 128.694501,31.5482642 C143.221413,23.5437788 153.101045,22.0076805 158.081413,26.9894624 C163.562765,32.4678034 161.243625,43.7440246 151.186974,60.5046083 C139.638899,78.7116265 126.002518,95.5066264 110.55533,110.547834 C77.9822427,143.120922 38.808725,169.905131 26.9909677,158.079877 C22.0136406,153.09957 23.5497389,143.216928 31.551275,128.692995 C30.6872094,127.242386 29.8821505,125.785786 29.1360983,124.323195 Z" id="Shape" fill="#147691"></path>
            </g>
        </g>
    </g>
</svg>