<?xml version="1.0" encoding="UTF-8"?>
<svg width="200px" height="200px" viewBox="0 0 200 200" version="1.1" xmlns="http://www.w3.org/2000/svg" xmlns:xlink="http://www.w3.org/1999/xlink">
    <!-- Generator: Sketch 48.2 (47327) - http://www.bohemiancoding.com/sketch -->
    <title>saturn</title>
    <desc>Created with Sketch.</desc>
    <defs></defs>
    <g id="intrepid-icon-set" stroke="none" stroke-width="1" fill="none" fill-rule="evenodd" transform="translate(-1000.000000, 0.000000)">
        <g id="saturn" transform="translate(1000.000000, 0.000000)">
            <path d="M31.86,127.923667 C33.4770625,131.827232 35.4284211,135.583761 37.6923,139.151333 L37.6616333,139.208667 C43.5563707,148.556401 51.4696749,156.465378 60.8206333,162.355 C81.4332359,149.725481 100.372011,134.548568 117.1893,117.183 C134.554137,100.366553 149.730383,81.4286683 162.3593,60.817 C156.469525,51.4655564 148.560187,43.5518899 139.211967,37.657 L139.154967,37.688 C135.587406,35.4240781 131.830744,33.4729201 127.926967,31.8563333 L127.945633,31.8426667 C100.468777,20.5803522 68.9163713,26.9173034 47.9186223,47.9152053 C26.9208734,68.9131071 20.584152,100.465559 31.8466667,127.942333 L31.86,127.923667 Z" id="Shape" fill="#FF9B52" fill-rule="nonzero"></path>
            <circle id="Oval" fill="#FFB984" fill-rule="nonzero" cx="73.3333333" cy="76.6666667" r="36.6666667"></circle>
            <path d="M123.440967,123.433333 C107.435494,139.57236 90.2735832,154.52184 72.0919667,168.162667 C99.5603196,179.401558 131.090452,173.059004 152.076513,152.073096 C173.062574,131.087188 179.405358,99.5571015 168.166667,72.0886667 C154.52694,90.2687486 139.578674,107.429211 123.440967,123.433333 Z" id="Shape" fill="#F99B55" fill-rule="nonzero"></path>
            <path d="M140.8842,39.1158 C160.419824,68.2149642 156.63586,107.069703 131.852781,131.852781 C107.069703,156.63586 68.2149642,160.419824 39.1158,140.8842 C55.6298601,165.473273 85.3143196,177.714236 114.360492,171.912809 C143.406665,166.111382 166.111382,143.406665 171.912809,114.360492 C177.714236,85.3143196 165.473273,55.6298601 140.8842,39.1158 Z" id="Shape" fill="#F98355"></path>
            <path d="M60.8203,165.688467 C60.1913398,165.688743 59.5751459,165.510992 59.0429667,165.175767 C49.2805106,159.009468 41.0139726,150.746266 34.8437333,140.9863 C34.7324541,140.811499 34.6386677,140.626159 34.5637333,140.432967 C32.3962961,136.95889 30.5098728,133.317205 28.9224667,129.542667 C28.8627801,129.43468 28.8095208,129.323264 28.7629667,129.209 C16.9911635,100.488353 23.6148911,67.5078802 45.5629613,45.5594604 C67.5110315,23.6110405 100.491399,16.9867876 129.212233,28.7581333 C129.330317,28.8068629 129.445526,28.8622862 129.5573,28.9241333 C133.328228,30.5095536 136.966154,32.3943767 140.4362,34.5605333 C140.629307,34.6343046 140.814652,34.726977 140.989533,34.8372 C150.75006,41.0087925 159.013311,49.2770428 165.179,59.0413 C165.836815,60.0818457 165.865622,61.4007583 165.253867,62.4690333 C155.663867,79.2805667 139.0072,100.081333 119.5475,119.539333 C100.0846,139.0006 79.2838333,155.660767 62.4708333,165.2506 C61.9683385,165.5382 61.3992769,165.689165 60.8203,165.688467 Z M40.7812333,137.903633 C46.0250341,146.049953 52.8772595,153.039551 60.9179,158.444 C80.5509045,146.08694 98.6493029,131.445321 114.834,114.825833 C131.452505,98.6439432 146.09259,80.5476503 158.447333,60.9163333 C153.04347,52.8742951 146.053804,46.0208692 137.906967,40.7763333 C137.722297,40.7037958 137.544684,40.6144424 137.376367,40.5094 C133.972335,38.3484036 130.388002,36.4854796 126.663333,34.9414 C126.549925,34.8947238 126.43909,34.8420266 126.3313,34.7835333 C100.165647,24.2262152 70.2235877,30.3267123 50.2742013,50.2796655 C30.3248149,70.2326187 24.2296709,100.175768 34.7916667,126.339533 C34.8481102,126.442115 34.8981178,126.548109 34.9414,126.6569 C36.489204,130.382772 38.3536794,133.969044 40.5143333,137.3763 C40.6187158,137.543846 40.7080431,137.720315 40.7812667,137.903633 L40.7812333,137.903633 Z" id="Shape" fill="#6D69CF" fill-rule="nonzero"></path>
            <path d="M99.9966667,176.982433 C89.9929724,176.995641 80.0837789,175.046984 70.83,171.246767 C69.7162825,170.790673 68.934962,169.769576 68.7858948,168.575354 C68.6368277,167.381131 69.1431712,166.199303 70.1106,165.483433 C88.1534594,151.933321 105.189303,137.091829 121.083933,121.075867 C137.100462,105.183892 151.940976,88.1490327 165.488233,70.1058667 C166.204388,69.1383455 167.386458,68.6319751 168.580927,68.7810308 C169.775396,68.9300865 170.796776,69.7114215 171.2532,70.8252667 C180.966486,94.570511 178.21601,121.593738 163.917801,142.895047 C149.619591,164.196356 125.651774,176.977735 99.9966667,176.982433 Z M79.0136,167.120767 C103.984146,174.913508 131.21656,168.207712 149.713598,149.711373 C168.210637,131.215034 174.917464,103.982874 167.125667,79.0120333 C154.371176,95.4780681 140.566392,111.103042 125.797533,125.789367 C111.109193,140.559549 95.4820304,154.36543 79.0136667,167.120767 L79.0136,167.120767 Z" id="Shape" fill="#6D69CF" fill-rule="nonzero"></path>
            <g id="Group" opacity="0.5" transform="translate(28.666667, 25.333333)" fill="#6D69CF" fill-rule="nonzero">
                <path d="M4.01236667,89.4795 C2.7675605,89.4845707 1.62371199,88.7954111 1.04642839,87.6925459 C0.469144784,86.5896806 0.554686436,85.2570093 1.26823333,84.237 C3.89843333,79.5771667 6.76303333,74.9873333 9.79036667,70.5895333 C9.83602422,70.5082472 9.88600707,70.4294675 9.9401,70.3535333 C17.0650651,60.1031635 25.0356065,50.4672293 33.7682333,41.5466667 C35.0527648,40.2288784 37.1623618,40.2019185 38.48015,41.48645 C39.7979382,42.7709815 39.8248982,44.8805784 38.5403667,46.1983667 C30.1400227,54.7837885 22.4641162,64.0492461 15.5911333,73.9 C15.5455667,73.9781333 15.5,74.0546333 15.4478,74.1295 C12.4139333,78.5191333 9.54936667,83.1106333 6.92893333,87.7753333 C6.3354352,88.8280518 5.22076004,89.4793151 4.01226667,89.4794333 L4.01236667,89.4795 Z M45.7213667,37.9186333 C44.3468227,37.9190567 43.1130377,37.0755023 42.6146151,35.794508 C42.1161926,34.5135138 42.455402,33.0579224 43.4687667,32.1292333 C56.7108956,19.7696316 71.5778939,9.27511429 87.6582,0.9362 C89.3033747,0.115712358 91.3022429,0.78192705 92.1262007,2.42536654 C92.9501585,4.06880602 92.2881636,6.06907579 90.6464667,6.8965 C75.1180912,14.9582197 60.7616507,25.0999387 47.9739667,37.0413333 C47.3604412,37.6071158 46.5559444,37.920436 45.7213667,37.9186333 Z" id="Shape"></path>
                <path d="M62.3489667,150.327467 C60.7885505,150.329793 59.4354135,149.249133 59.0926142,147.726834 C58.749815,146.204536 59.5091349,144.648181 60.9199333,143.981433 C76.6153517,136.362626 90.947125,126.207979 103.338567,113.9261 C104.653658,112.63704 106.76474,112.658142 108.0538,113.973233 C109.34286,115.288325 109.321758,117.399406 108.006667,118.688467 C95.0831883,131.488204 80.1377394,142.06957 63.7716333,150.006833 C63.3269631,150.21762 62.8410668,150.327129 62.3489667,150.327467 Z M114.9043,110.0231 C113.585603,110.02304 112.390839,109.245773 111.856376,108.04024 C111.321913,106.834707 111.54818,105.427437 112.4336,104.4502 C118.705277,97.5544721 124.518501,90.2553113 129.835933,82.5996 C130.513368,81.6203767 131.661754,81.0769444 132.848504,81.1740087 C134.035253,81.2710731 135.080072,81.9938877 135.589387,83.0701754 C136.098702,84.1464631 135.995135,85.41271 135.3177,86.3919333 C129.834948,94.2878536 123.841235,101.816425 117.375,108.929367 C116.743095,109.626843 115.845457,110.024211 114.9043,110.0231 Z" id="Shape"></path>
                <path d="M23.3222667,132.591467 C22.0476206,132.590262 20.8852739,131.862219 20.3278734,130.715908 C19.7704728,129.569597 19.9156345,128.205769 20.7018333,127.202467 C21.8639444,125.718022 23.0455889,124.226589 24.2467667,122.728167 C24.3053222,122.639315 24.3683361,122.553483 24.4355667,122.471 C25.8613444,120.695289 27.3120778,118.912522 28.7877667,117.1227 C29.959929,115.708142 32.055596,115.508546 33.4737132,116.6764 C34.8918304,117.844253 35.0978009,119.939303 33.9342667,121.360967 C32.5540667,123.035767 31.1944778,124.704656 29.8555,126.367633 C29.7987639,126.456928 29.7368119,126.542799 29.6699667,126.6248 C28.4069444,128.195444 27.1667111,129.758489 25.9492667,131.313933 C25.3169181,132.121429 24.3478941,132.592673 23.3222667,132.591467 Z M39.9563667,112.388133 C38.6517155,112.389169 37.466455,111.62877 36.9235513,110.442444 C36.3806476,109.256117 36.5799677,107.862087 37.4335667,106.875433 C47.388,95.3552667 58.1139,83.8367 69.3118333,72.6371667 C70.9296111,71.0225889 72.5452778,69.4232 74.1588333,67.839 C75.4757302,66.5672341 77.5718743,66.595638 78.8538277,67.9026199 C80.135781,69.2096017 80.1236546,71.3059032 78.8266667,72.5979667 C77.2251111,74.1686111 75.6246333,75.7533556 74.0252333,77.3522 C62.9412333,88.4362 52.3292667,99.8359333 42.479,111.234033 C41.8463433,111.967767 40.92519,112.389157 39.9563667,112.388033 L39.9563667,112.388133 Z M86.1054667,64.3151 C84.7390533,64.3150629 83.5110449,63.4811071 83.0071537,62.2109972 C82.5032626,60.9408873 82.8255511,59.4918817 83.8203,58.5551 C97.3326667,45.8402667 110.998033,34.0645333 124.4388,23.5534667 C125.888732,22.4190554 127.983755,22.6748351 129.118167,24.1247667 C130.252578,25.5746982 129.996798,27.669722 128.546867,28.8041333 C115.265633,39.1914 101.753333,50.8336667 88.3906333,63.4085333 C87.7730287,63.9920788 86.9551482,64.3165466 86.1054667,64.3151 Z" id="Shape"></path>
                <path d="M9.66333333,117.306667 C8.46166746,117.306019 7.35342033,116.658452 6.76289671,115.611895 C6.17237309,114.565337 6.19104614,113.281902 6.81176667,112.252967 C13.1080545,101.629569 20.1562081,91.4701753 27.9022667,81.8525667 C28.6479007,80.9232052 29.8329396,80.4625754 31.0104911,80.6443863 C32.1880426,80.8261971 33.1789697,81.6227903 33.6095818,82.7337611 C34.0401939,83.8447318 33.8449834,85.1010717 33.0975667,86.029 C25.5408693,95.4143971 18.6646289,105.327886 12.5214,115.6937 C11.9180572,116.695942 10.8331664,117.308207 9.66333333,117.306667 Z M39.0904,77.0853 C37.7794545,77.0855523 36.5901538,76.3171729 36.05156,75.1219763 C35.5129661,73.9267798 35.7251547,72.5268444 36.5937333,71.5449333 C38.0358,69.9108222 39.5375333,68.2436111 41.0989333,66.5433 C42.3448141,65.187754 44.4536872,65.0988527 45.8092332,66.3447334 C47.1647793,67.5906142 47.2536807,69.6994872 46.0078,71.0550333 C44.4713333,72.7233333 43.0032333,74.3574333 41.5872333,75.959 C40.955802,76.6761716 40.0460308,77.086578 39.0905,77.0853 L39.0904,77.0853 Z M52.7590333,62.4889333 C51.4143682,62.4878315 50.2019062,61.6792887 49.6840429,60.4383442 C49.1661796,59.1973997 49.4442346,57.7668435 50.3892333,56.8102333 L51.8899,55.3030667 C68.7875738,38.2774845 87.2830705,22.9160073 107.1211,9.43066667 C108.657326,8.41670868 110.724659,8.84009061 111.738617,10.3763167 C112.752575,11.9125427 112.329193,13.9798754 110.792967,14.9938333 C91.3308804,28.2304984 73.1854303,43.306248 56.6066667,60.0133333 L55.1288,61.5009667 C54.5026175,62.1336591 53.6492708,62.4894333 52.7591,62.4889333 L52.7590333,62.4889333 Z" id="Shape"></path>
                <path d="M141.3138,73.8870333 C140.130523,73.8858161 139.036554,73.2574776 138.439276,72.2360053 C137.841998,71.2145331 137.83092,69.953004 138.410167,68.9212 C139.282567,67.3717333 140.1224,65.7538667 140.932967,64.0888333 C141.741131,62.4380659 143.732842,61.7527408 145.385654,62.556714 C147.038467,63.3606872 147.728844,65.3506527 146.929067,67.0055 C146.059933,68.7909667 145.154967,70.526 144.224,72.1861667 C143.633079,73.2378635 142.520138,73.8883217 141.3138,73.8870333 Z" id="Shape"></path>
            </g>
            <path d="M193.7613,6.231 C185.2103,-2.32 159.377967,8.59366667 127.926967,31.8563333 C131.830744,33.4729201 135.587406,35.4240781 139.154967,37.688 C153.373633,29.5816667 164.292967,26.77 168.757633,31.2346667 C178.2513,40.7283333 155.164967,79.2073333 117.1893,117.183 C79.2136333,155.158667 40.7316333,178.248333 31.2379667,168.754333 C26.7733333,164.289667 29.5856333,153.37 37.6923,139.151333 C35.4283546,135.5838 33.4769929,131.827265 31.86,127.923667 C8.59796667,159.374667 -2.31636667,185.207333 6.2343,193.758 C19.1806333,206.704 71.6553,175.218667 123.440967,123.433333 C175.225967,71.6483333 206.7073,19.1773333 193.7613,6.231 Z" id="Shape" fill="#BBB9FF" fill-rule="nonzero"></path>
            <path d="M193.7612,6.23086667 C191.800433,4.44679076 189.25336,3.44391595 186.6026,3.41226667 C187.246933,12.7939667 180.8771,27.9864333 169.1856,46.1783667 C163.532267,63.0999667 144.110933,90.2614 117.189333,117.183 C90.2663333,144.105833 63.102,163.529267 46.18,169.182333 C27.9888667,180.873 12.7976333,187.243033 3.41593333,186.599 C3.44738614,189.249821 4.4502043,191.797002 6.23433333,193.7578 C19.1807,206.703767 71.6552667,175.218567 123.441,123.4331 C175.226033,71.6483667 206.707367,19.1772333 193.7612,6.23086667 Z" id="Shape" fill="#9F9CFF" fill-rule="nonzero"></path>
            <path d="M14.6907667,199.972333 C10.7117594,200.209343 6.80766071,198.816697 3.87696667,196.1149 C-9.92513333,182.314467 16.9726667,142.443033 29.1797,125.940767 C29.8951846,124.973922 31.0761247,124.467614 32.2697321,124.615969 C33.4633394,124.764324 34.484403,125.544321 34.9414333,126.6569 C36.4892373,130.382772 38.3537127,133.969044 40.5143667,137.3763 C41.1689072,138.417237 41.1976779,139.733864 40.5892333,140.8024 C31.8555,156.123033 31.3639667,164.165033 33.5938,166.3981 C39.7917333,172.587867 73.6882,155.9684 114.834033,114.825833 C131.209557,98.8922562 145.668359,81.1008731 157.916667,61.8131667 C168.076167,44.8795667 168.834633,36.0286667 166.399733,33.5921333 C164.160167,31.3574333 156.123067,31.8506 140.804033,40.5843333 C139.73573,41.1959768 138.416879,41.1671711 137.3763,40.5094667 C133.972292,38.3484507 130.387981,36.4855044 126.663333,34.9414 C125.549488,34.4849756 124.768153,33.4635961 124.619097,32.2691269 C124.470042,31.0746577 124.976412,29.8925878 125.943933,29.1764333 C142.447933,16.9694 182.324233,-9.92023333 196.116667,3.8737 C212.871233,20.6315 172.3927,79.1943333 125.797667,125.7894 C86.5397,165.050467 38.7793,199.969067 14.6907667,199.972333 Z M31.2076667,134.485667 C8.35613333,166.494133 3.25196667,186.0612 8.5905,191.401367 C18.5547,201.363933 67.2135333,174.948033 121.083833,121.075833 C174.947933,67.2103 201.3737,18.5612 191.403,8.58723333 C186.0677,3.2552 166.507167,8.34636667 134.488933,31.2060667 C136.074222,32.0117333 137.654089,32.8846667 139.228533,33.8248667 C154.990233,25.14 165.709633,23.4733333 171.113333,28.8785667 C177.0606,34.8225667 174.544333,47.0572667 163.632867,65.2425 C151.103205,84.9971147 136.307733,103.21969 119.547533,119.5394 C84.2057333,154.8812 41.7024667,183.942067 28.8802,171.111667 C23.4798,165.708033 25.1464667,154.985367 33.8281333,139.2269 C32.8906222,137.652989 32.0171333,136.072578 31.2076667,134.485667 Z" id="Shape" fill="#6D69CF" fill-rule="nonzero"></path>
        </g>
    </g>
</svg>