<?xml version="1.0" encoding="UTF-8"?>
<svg width="200px" height="200px" viewBox="0 0 200 200" version="1.1" xmlns="http://www.w3.org/2000/svg" xmlns:xlink="http://www.w3.org/1999/xlink">
    <!-- Generator: Sketch 48.2 (47327) - http://www.bohemiancoding.com/sketch -->
    <title>neptune</title>
    <desc>Created with Sketch.</desc>
    <defs></defs>
    <g id="intrepid-icon-set" stroke="none" stroke-width="1" fill="none" fill-rule="evenodd" transform="translate(-1200.000000, 0.000000)">
        <g id="neptune" transform="translate(1200.000000, 0.000000)">
            <circle id="Oval" fill="#46B6F5" fill-rule="nonzero" cx="100" cy="100" r="96.6666667"></circle>
            <path d="M157.6182,22.3818 C186.184088,60.8633384 182.24193,114.465256 148.353593,148.353593 C114.465256,182.24193 60.8633384,186.184088 22.3818,157.6182 C44.9954224,188.081352 83.3383375,202.499872 120.421255,194.485084 C157.504172,186.470297 186.470297,157.504172 194.485084,120.421255 C202.499872,83.3383375 188.081352,44.9954224 157.6182,22.3818 Z" id="Shape" fill="#3B72C7" opacity="0.353702446"></path>
            <path d="M100,200 C44.771525,200 6.76353751e-15,155.228475 0,100 C-6.76353751e-15,44.771525 44.771525,1.01453063e-14 100,0 C155.228475,-1.01453063e-14 200,44.771525 200,100 C199.937433,155.202538 155.202538,199.937433 100,200 Z M100,6.66666667 C48.4534233,6.66666667 6.66666667,48.4534233 6.66666667,100 C6.66666667,151.546577 48.4534233,193.333333 100,193.333333 C151.546577,193.333333 193.333333,151.546577 193.333333,100 C193.27556,48.477373 151.522627,6.72444033 100,6.66666667 Z" id="Shape" fill="#3B72C7" fill-rule="nonzero"></path>
            <circle id="Oval" fill="#75D1FF" fill-rule="nonzero" cx="66.6666667" cy="63.3333333" r="43.3333333"></circle>
            <path d="M141.689467,71.3623 C140.013789,71.3610565 138.599499,70.1160258 138.385819,68.454028 C138.17214,66.7920302 139.2255,65.2297393 140.846367,64.8046667 L142.8418,64.2675667 C144.613971,63.7830174 146.444109,64.8236678 146.933885,66.5944013 C147.423661,68.3651348 146.388414,70.1983357 144.619133,70.6933333 L142.539133,71.2533333 C142.261793,71.3261353 141.976202,71.3627614 141.689467,71.3623 Z" id="Shape" fill="#4775D1" fill-rule="nonzero" opacity="0.5"></path>
            <path d="M109.707033,75.7422 C91.5211899,76.1058317 73.6674704,70.8394327 58.5903667,60.6640667 C57.0766187,59.6159498 56.69915,57.5391481 57.7472668,56.0254001 C58.7953835,54.5116521 60.8721853,54.1341833 62.3859333,55.1823 C75.2114667,64.0608667 97.5714667,73.3123 131.214067,66.9775333 C133.02259,66.6380619 134.764219,67.8278794 135.10555,69.6360523 C135.44688,71.4442251 134.258854,73.1870769 132.451033,73.5302667 C124.954848,74.9723302 117.340609,75.7128415 109.707033,75.7422 Z" id="Shape" fill="#3B72C7" fill-rule="nonzero" opacity="0.5"></path>
            <path d="M52.6692667,54.9756 C51.8227429,54.9771558 51.0076151,54.6552019 50.3906333,54.0756 C48.6331444,52.4710055 47.0058105,50.7294238 45.5239667,48.8672667 C44.4219546,47.3965158 44.7184643,45.3112618 46.1867697,44.2059936 C47.6550752,43.1007254 49.740981,43.3926139 50.8495,44.8584667 C52.1047383,46.4092382 53.4746925,47.8635296 54.9478,49.2090667 C55.9457872,50.1445487 56.2711382,51.5946914 55.7684548,52.8668607 C55.2657715,54.1390299 54.0370499,54.9750984 52.6691667,54.9757333 L52.6692667,54.9756 Z" id="Shape" fill="#3B72C7" fill-rule="nonzero" opacity="0.5"></path>
            <path d="M103.912767,39.5247333 C91.1653667,39.5247333 81.1784,33.3007667 81.1784,25.3564333 C81.1784,18.5156 89.2838667,13.3561 100.032567,13.3561 C109.010433,13.3561 115.781267,17.7701667 115.781267,23.6230333 C115.781267,25.4639825 114.288882,26.9563667 112.447933,26.9563667 C110.606984,26.9563667 109.1146,25.4639825 109.1146,23.6230333 C109.1146,22.3860667 105.5762,20.0227667 100.032567,20.0227667 C92.5944,20.0227667 87.8450667,23.1819333 87.8450667,25.3564333 C87.8450667,28.8981 94.7168,32.8580667 103.912767,32.8580667 C116.237,32.8580667 124.827467,27.4772 124.827467,22.6480667 C124.827467,20.8071175 126.319851,19.3147333 128.1608,19.3147333 C130.001749,19.3147333 131.494133,20.8071175 131.494133,22.6480667 C131.494133,32.111 119.378267,39.5247333 103.912767,39.5247333 Z" id="Shape" fill="#3B72C7" fill-rule="nonzero" opacity="0.5"></path>
            <path d="M91.8326667,55.2164667 C91.619652,55.2164458 91.4071168,55.1962782 91.1979,55.1562333 C70.5175667,51.1604667 56.6243333,39.7981667 56.6243333,26.88 C56.6243333,25.0390508 58.1167175,23.5466667 59.9576667,23.5466667 C61.7986158,23.5466667 63.291,25.0390508 63.291,26.88 C63.291,36.3559 75.2864333,45.2931 92.461,48.61 C94.1466584,48.9361411 95.3089036,50.4892582 95.1463592,52.1984661 C94.9838149,53.907674 93.5496509,55.2138746 91.8327333,55.2164333 L91.8326667,55.2164667 Z" id="Shape" fill="#3B72C7" fill-rule="nonzero" opacity="0.5"></path>
            <path d="M107.320967,56.6633333 C105.480018,56.6633333 103.987633,55.1709492 103.987633,53.33 C103.987633,51.4890508 105.480018,49.9966667 107.320967,49.9966667 C115.789745,50.0418568 124.226734,48.9575339 132.408867,46.7723667 C146.7448,42.8612333 157.3112,35.8820667 161.399767,27.6252333 C162.216872,25.9748224 164.217189,25.2992948 165.8676,26.1164 C167.518011,26.9335053 168.193539,28.9338224 167.376433,30.5842333 C162.441533,40.5468 150.335433,48.7906 134.1668,53.2046667 C125.411553,55.5449428 116.383485,56.7080685 107.320967,56.6633333 Z" id="Shape" fill="#3B72C7" fill-rule="nonzero" opacity="0.5"></path>
            <path d="M174.231767,124.490567 C173.9974,124.490567 173.766267,124.479167 173.531767,124.458 C171.698908,124.283616 170.354449,122.656425 170.528833,120.823567 C170.703217,118.990708 172.330408,117.646249 174.163267,117.820633 C174.641767,117.849933 175.6216,117.3112 176.5591,115.950633 C177.947535,113.734183 178.773351,111.212041 178.9647,108.603633 C179.247244,105.921116 179.047702,103.209688 178.3755,100.597433 C178.055953,99.4483261 178.374938,98.2160584 179.211905,97.3663266 C180.048872,96.5165948 181.276171,96.1789958 182.429983,96.4811144 C183.583795,96.783233 184.488146,97.6789916 184.801267,98.8298667 C185.689291,102.22234 185.959442,105.746954 185.5988,109.235133 C185.310766,112.977777 184.089795,116.588649 182.047367,119.738067 C180.391077,122.519888 177.463716,124.299955 174.231767,124.490567 Z" id="Shape" fill="#3B72C7" fill-rule="nonzero" opacity="0.5"></path>
            <path d="M178.144533,96.8245333 C177.319201,96.8257908 176.523028,96.5193941 175.911467,95.9651667 C175.529027,95.5787777 175.030499,95.3283663 174.4922,95.2522667 C173.617107,95.194696 172.748368,95.4356952 172.028,95.9358667 C170.462432,96.8997902 168.412039,96.4145506 167.444575,94.8511677 C166.477111,93.2877848 166.95771,91.2362987 168.5189,90.2653 C170.479679,89.0079282 172.798662,88.4281796 175.120467,88.6149 C177.086856,88.8249279 178.931816,89.6680075 180.377633,91.0172333 C181.401937,91.9411052 181.751211,93.4005365 181.256135,94.6880291 C180.761058,95.9755217 179.523964,96.8249509 178.144567,96.8245333 L178.144533,96.8245333 Z" id="Shape" fill="#3B72C7" fill-rule="nonzero" opacity="0.5"></path>
            <path d="M174.264333,140.947267 C173.841,140.947267 173.417967,140.927733 172.991533,140.887033 C167.975267,140.410133 163.7207,136.749667 161.005867,130.582667 C158.465244,124.286485 157.539805,117.454824 158.3138,110.709633 C158.681604,106.465663 159.803794,102.321381 161.6276,98.4716667 C162.150357,97.4017276 163.20421,96.6919506 164.392183,96.6097019 C165.580156,96.5274532 166.721767,97.0852283 167.386983,98.0729187 C168.052199,99.060609 168.139957,100.328161 167.6172,101.3981 C166.144834,104.526772 165.240988,107.892498 164.947933,111.337867 C164.282051,116.95146 165.024901,122.642512 167.1094,127.8971 C168.782733,131.7008 171.155633,134.015267 173.623067,134.249633 C180.498067,134.923467 188.974633,124.285433 190.579433,107.4202 C192.4349,87.8726667 185.455733,70.5435333 175.332033,69.5816667 C167.431633,68.8183333 159.0787,75.9618667 153.3496,88.1721667 C152.846852,89.2554312 151.803001,89.9869673 150.613198,90.0898525 C149.423394,90.1927377 148.269462,89.6512491 147.588222,88.670367 C146.906982,87.6894848 146.80254,86.4191066 147.314433,85.3401333 C154.374967,70.2831667 165.123667,61.9059 175.963533,62.9443 C190.156233,64.2952 199.488933,84.1080333 197.213533,108.051733 C195.426433,126.8685 185.4785,140.945633 174.264333,140.947267 Z" id="Shape" fill="#3B72C7" fill-rule="nonzero" opacity="0.5"></path>
            <path d="M161.748033,177.073567 C161.058452,177.074706 160.385778,176.860159 159.8242,176.459967 C145.4004,166.2321 137.5,140.553333 140.162767,112.561833 C140.567566,108.233853 141.285592,103.940912 142.3112,99.7167667 C142.747164,97.9279532 144.550703,96.8312523 146.339517,97.2672167 C148.12833,97.703181 149.225031,99.5067198 148.789067,101.295533 C147.839736,105.207844 147.173941,109.183556 146.796867,113.1917 C144.391267,138.487933 151.334633,162.267233 163.678367,171.020467 C164.863034,171.859926 165.368048,173.369653 164.926911,174.752956 C164.485773,176.136259 163.199972,177.074892 161.748033,177.073533 L161.748033,177.073567 Z" id="Shape" fill="#3B72C7" fill-rule="nonzero" opacity="0.5"></path>
            <path d="M127.3112,110.966667 L127.181,110.965033 C126.297703,110.931662 125.46388,110.548614 124.863113,109.900227 C124.262346,109.25184 123.943893,108.391274 123.977867,107.508 C124.114397,100.853599 125.822077,94.3257237 128.9616,88.4569 C129.85522,86.848161 131.883161,86.2674899 133.49282,87.1594522 C135.102478,88.0514146 135.685237,90.0787571 134.794933,91.6893333 C132.14508,96.6366295 130.719628,102.147 130.638033,107.758667 C130.570421,109.547848 129.101656,110.964149 127.3112,110.966667 Z" id="Shape" fill="#3B72C7" fill-rule="nonzero" opacity="0.5"></path>
            <path d="M53.0013,139.441733 C52.1170806,139.442735 51.2689341,139.09124 50.6446333,138.465067 C47.6791333,135.496333 43.9324,135.1057 42.435,136.606333 C41.1303895,137.895325 39.0296737,137.888651 37.7332799,136.591396 C36.4368861,135.29414 36.431608,133.19342 37.7214667,131.889667 C42.1485667,127.467467 49.8959333,128.286167 55.3581333,133.751633 C56.3111597,134.704948 56.5962064,136.138422 56.0803933,137.383815 C55.5645802,138.629208 54.349453,139.441346 53.0014667,139.441633 L53.0013,139.441733 Z" id="Shape" fill="#3B72C7" fill-rule="nonzero" opacity="0.5"></path>
            <path d="M73.7566667,162.192367 C72.7396306,162.192821 71.7779356,161.729317 71.1446845,160.933481 C70.5114335,160.137644 70.2758002,159.096409 70.5047,158.105467 C72.4806,149.5866 68.6297,138.953433 60.6935,131.015467 C52.0444,122.368 40.0131667,120.325467 33.8575667,126.4712 C29.2809,131.049667 30.9475667,140.447433 37.4936333,146.9953 C42.4773667,151.975767 49.5672,153.308633 52.9721333,149.903833 C53.9057559,148.87796 54.3827318,147.516916 54.2937333,146.132667 C54.257254,144.292217 55.7183022,142.769982 57.5587,142.730967 C59.3765735,142.750975 60.8658704,144.180409 60.9604,145.995933 C61.0980925,149.19735 59.9140244,152.314662 57.6856667,154.617367 C51.6212,160.683433 40.4493333,159.374867 32.7800667,151.708833 C23.519,142.4494 21.8881333,129.013533 29.144,121.757667 C37.8873333,113.011 54.1570333,115.0503 65.4070333,126.301933 C75.0782667,135.9748 79.5216333,148.7386 77.0021,159.612467 C76.6511525,161.12206 75.3065168,162.190955 73.7566667,162.192367 Z" id="Shape" fill="#3B72C7" fill-rule="nonzero" opacity="0.5"></path>
            <path d="M61.9759,176.093767 C60.4067295,176.094934 59.0492223,175.001521 58.7160772,173.468122 C58.382932,171.934724 59.1643696,170.376606 60.5925667,169.726567 C62.7435359,168.754695 64.7018837,167.40337 66.3738333,165.7373 C67.6754396,164.435694 69.7857603,164.435694 71.0873666,165.7373 C72.3889728,167.038906 72.3889729,169.149227 71.0873667,170.450833 C68.8513839,172.682368 66.2313446,174.492438 63.353,175.794167 C62.9206905,175.991414 62.4510823,176.093582 61.9759,176.093767 Z" id="Shape" fill="#3B72C7" fill-rule="nonzero" opacity="0.5"></path>
            <path d="M4.26756667,112.091467 C3.17089476,112.090627 2.14467886,111.550856 1.52262304,110.647675 C0.900567233,109.744493 0.762131898,108.593273 1.15233333,107.568367 C2.53673115,103.891307 4.68586964,100.549985 7.45766667,97.7653 C16.1979333,89.0283333 29.1666667,85.7063667 43.9974,88.4293667 C45.8043252,88.7653413 46.9982366,90.5006475 46.6661461,92.3082905 C46.3340556,94.1159335 44.6013192,95.3135716 42.7929667,94.9853667 C30.2083333,92.6790667 19.3163,95.3353667 12.1712333,102.4787 C10.064895,104.600583 8.43280414,107.145285 7.3828,109.944667 C6.88906694,111.236268 5.65031893,112.089926 4.26756667,112.091467 Z" id="Shape" fill="#3B72C7" fill-rule="nonzero" opacity="0.5"></path>
            <path d="M58.4766667,99.8535 C58.0038402,99.8530825 57.5365739,99.7515211 57.1062333,99.5556333 C55.3777333,98.7727667 53.6134,98.0598667 51.8653333,97.4365 C50.1313525,96.8198557 49.2255723,94.9142975 49.8422167,93.1803167 C50.458861,91.4463359 52.3644192,90.5405557 54.0984,91.1572 C56.0222333,91.8408 57.9590667,92.6236667 59.8536,93.4814333 C61.2849991,94.1289861 62.070156,95.6879062 61.7383186,97.2235207 C61.4064812,98.7591352 60.0476923,99.854761 58.4766333,99.8535 L58.4766667,99.8535 Z" id="Shape" fill="#3B72C7" fill-rule="nonzero" opacity="0.5"></path>
            <path d="M97.0442667,197.338867 C95.517549,197.340165 94.1850495,196.304221 93.8098853,194.824316 C93.434721,193.34441 94.112777,191.79878 95.4557333,191.0726 C97.3795667,190.0342 101.7448,183.1901 103.115233,172.0817 C103.741614,166.868425 103.640829,161.593411 102.815767,156.407867 C100.772069,144.434423 95.5906453,133.216797 87.7995,123.8981 C85.4560623,120.997016 82.9429444,118.2372 80.2733333,115.633133 C76.1350379,111.568418 71.5921195,107.937327 66.7154,104.796467 C65.7129187,104.153341 65.1296913,103.024251 65.1854138,101.834514 C65.2411364,100.644777 65.9273433,99.5751419 66.9855472,99.0285305 C68.043751,98.4819191 69.3131854,98.5413743 70.3156667,99.1845 C75.5724798,102.572711 80.4707682,106.487196 84.9348,110.867433 C87.7923511,113.657469 90.4836474,116.612853 92.9948,119.718333 C101.522683,129.943893 107.18512,142.248825 109.4043,155.3775 C110.324323,161.173479 110.433883,167.069241 109.729833,172.8954 C108.349633,184.096567 103.6784,194.208733 98.6263333,196.938367 C98.1403727,197.201056 97.5966825,197.338691 97.0442667,197.338867 Z" id="Shape" fill="#3B72C7" fill-rule="nonzero" opacity="0.5"></path>
            <path d="M6.50716667,81.1766667 C5.0213257,81.1776794 3.71417396,80.1952481 3.30199767,78.7677205 C2.88982137,77.3401929 3.47213009,75.8122095 4.72983333,75.0210667 C12.5664057,70.1914075 21.4805752,67.3853827 30.6706,66.8553667 C32.5070573,66.7259203 34.100737,68.1097261 34.2301833,69.9461833 C34.3596297,71.7826406 32.9758239,73.3763203 31.1393667,73.5057667 C23.0435249,73.9620214 15.187831,76.4223091 8.27803333,80.6656 C7.74775737,80.9995594 7.13384158,81.1767336 6.50716667,81.1766667 Z" id="Shape" fill="#3B72C7" fill-rule="nonzero" opacity="0.5"></path>
            <path d="M97.2819,101.043333 C96.411682,101.044381 95.5758614,100.703619 94.9544333,100.094433 C80.6302353,85.5932085 61.8731606,76.2914494 41.66,73.6653667 C39.8275928,73.4873837 38.486417,71.8576405 38.6644,70.0252333 C38.842383,68.1928262 40.4721262,66.8516504 42.3045333,67.0296333 C64.0570862,69.7073558 84.2586892,79.6824981 99.6092333,95.3255333 C100.580164,96.2717738 100.880892,97.7119875 100.369744,98.967697 C99.8585967,100.223406 98.6375238,101.044158 97.2817667,101.0433 L97.2819,101.043333 Z" id="Shape" fill="#3B72C7" fill-rule="nonzero" opacity="0.5"></path>
            <path d="M119.482433,131.855467 C118.176978,131.857412 116.990811,131.096314 116.448567,129.9088 C115.621744,128.107044 114.715711,126.300378 113.730467,124.4888 C112.851377,122.870735 113.450435,120.84639 115.0685,119.9673 C116.686565,119.08821 118.71091,119.687268 119.59,121.305333 C120.647933,123.255333 121.631,125.216467 122.51,127.135333 C122.98147,128.16663 122.896411,129.36686 122.284211,130.321358 C121.672011,131.275856 120.616621,131.853731 119.482667,131.855333 L119.482433,131.855467 Z" id="Shape" fill="#3B72C7" fill-rule="nonzero" opacity="0.5"></path>
            <path d="M125.0228,186.201167 C124.757357,186.201719 124.49283,186.17002 124.235033,186.106767 C123.375888,185.898955 122.634544,185.358234 122.174206,184.603644 C121.713868,183.849054 121.572276,182.942455 121.7806,182.083433 C125.158258,167.972898 124.586145,153.204837 120.126967,139.3979 C119.56695,137.643245 120.535395,135.766834 122.29005,135.206817 C124.044705,134.6468 125.921116,135.615245 126.481133,137.3699 C131.309255,152.342061 131.924147,168.354128 128.258467,183.652467 C127.897322,185.146938 126.560288,186.200106 125.0228,186.201167 Z" id="Shape" fill="#3B72C7" fill-rule="nonzero" opacity="0.5"></path>
        </g>
    </g>
</svg>