<?xml version="1.0" encoding="UTF-8"?>
<svg width="200px" height="200px" viewBox="0 0 200 200" version="1.1" xmlns="http://www.w3.org/2000/svg" xmlns:xlink="http://www.w3.org/1999/xlink">
    <!-- Generator: Sketch 48.2 (47327) - http://www.bohemiancoding.com/sketch -->
    <title>jupiter</title>
    <desc>Created with Sketch.</desc>
    <defs></defs>
    <g id="intrepid-icon-set" stroke="none" stroke-width="1" fill="none" fill-rule="evenodd" transform="translate(-800.000000, 0.000000)">
        <g id="jupiter" transform="translate(800.000000, 0.000000)" fill-rule="nonzero">
            <path d="M196.6,102.933333 C196.460292,108.341516 195.858096,113.727828 194.8,119.033333 L162.9,117.2 C154.337779,116.844423 145.85696,115.388007 137.666667,112.866667 L136.066667,112.366667 C116.905669,106.5 96.4276645,106.5 77.2666667,112.366667 L75.6666667,112.866667 C67.476373,115.388007 58.9955546,116.844423 50.4333333,117.2 L5.2,119.033333 C4.14190396,113.727828 3.5397076,108.341516 3.4,102.933333 C33.9351344,89.9086287 66.8031838,83.2397491 100,83.3333333 C133.196816,83.2397491 166.064866,89.9086287 196.6,102.933333 Z" id="Shape" fill="#FFBC4A"></path>
            <path d="M16.2,148.2 C10.9677304,139.1425 7.25202129,129.290241 5.2,119.033333 L50.4333333,117.2 C58.9955546,116.844423 67.476373,115.388007 75.6666667,112.866667 L77.2666667,112.366667 C96.4276645,106.5 116.905669,106.5 136.066667,112.366667 L137.666667,112.866667 C145.85696,115.388007 154.337779,116.844423 162.9,117.2 L194.8,119.033333 C192.672594,129.684599 188.750055,139.896728 183.2,149.233333 L162.9,149.466667 C154.337779,149.822244 145.85696,151.278659 137.666667,153.8 L136.066667,154.3 C116.905669,160.166666 96.4276645,160.166666 77.2666667,154.3 L75.6666667,153.8 C67.476373,151.278659 58.9955546,149.822244 50.4333333,149.466667 L16.2,148.2 Z M130,133.333333 C130,125.966667 119.566667,120 106.666667,120 C93.7666667,120 83.3333333,125.966667 83.3333333,133.333333 C83.3333333,140.7 93.7666667,146.666667 106.666667,146.666667 C119.566667,146.666667 130,140.7 130,133.333333 Z" id="Shape" fill="#E37048"></path>
            <path d="M196.6,102.933333 C166.064866,89.9086287 133.196816,83.2397491 100,83.3333333 C66.8031838,83.2397491 33.9351344,89.9086287 3.4,102.933333 C3.33333333,101.966667 3.33333333,101 3.33333333,100 C3.31263069,90.8034855 4.62631372,81.6526166 7.23333333,72.8333333 C29.2333333,60.9333333 62.6333333,53.3333333 100,53.3333333 C137.366667,53.3333333 170.766667,60.9333333 192.766667,72.8333333 C195.373686,81.6526166 196.687369,90.8034855 196.666667,100 C196.666667,101 196.666667,101.966667 196.6,102.933333 Z" id="Shape" fill="#E37048"></path>
            <path d="M162.9,149.466667 L183.2,149.233333 C179.208968,156.02066 174.382412,162.280625 168.833333,167.866667 C146.815564,176.055656 123.490717,180.167155 100,180 C76.5092835,180.167155 53.1844357,176.055656 31.1666667,167.866667 C25.3497053,161.984695 20.3189793,155.374165 16.2,148.2 L50.4333333,149.466667 C58.9955546,149.822244 67.476373,151.278659 75.6666667,153.8 L77.2666667,154.3 C96.4276645,160.166666 116.905669,160.166666 136.066667,154.3 L137.666667,153.8 C145.85696,151.278659 154.337779,149.822244 162.9,149.466667 Z" id="Shape" fill="#FFBC4A"></path>
            <path d="M177.733333,42.5333333 C184.507043,51.6586032 189.597955,61.919445 192.766667,72.8333333 C170.766667,60.9333333 137.366667,53.3333333 100,53.3333333 C62.6333333,53.3333333 29.2333333,60.9333333 7.23333333,72.8333333 C10.4020445,61.919445 15.4929572,51.6586032 22.2666667,42.5333333 C46.7552097,31.7786134 73.2555725,26.3694484 100,26.6666667 C126.744427,26.3694484 153.24479,31.7786134 177.733333,42.5333333 Z" id="Shape" fill="#FFBC4A"></path>
            <path d="M100,3.33333333 C130.666292,3.31287972 159.518469,17.862691 177.733333,42.5333333 C153.24479,31.7786134 126.744427,26.3694484 100,26.6666667 C73.2555725,26.3694484 46.7552097,31.7786134 22.2666667,42.5333333 C40.4815312,17.862691 69.333708,3.31287972 100,3.33333333 Z" id="Shape" fill="#E37048"></path>
            <path d="M192.766667,72.8333333 C189.597974,61.9194377 184.50706,51.6585927 177.733333,42.5333333 C172.06054,34.8855541 165.294971,28.1126626 157.653333,22.4316 L157.733333,22.5333333 C170.025183,39.1724766 176.660819,59.3130325 176.666667,80 C176.666667,81 176.666667,81.9666667 176.6,82.9333333 C176.460336,88.3415189 175.85814,93.7278346 174.8,99.0333333 C172.672521,109.684578 168.749986,119.896694 163.2,129.233333 C159.208968,136.02066 154.382412,142.280625 148.833333,147.866667 C115.013876,182.182988 61.0813441,186.34 22.4025333,157.6117 C39.219233,180.277526 65.10433,194.45884 93.2584307,196.430552 C121.412531,198.402264 149.021577,187.967297 168.833333,167.866667 C174.382412,162.280625 179.208968,156.02066 183.2,149.233333 C188.749986,139.896694 192.672521,129.684578 194.8,119.033333 C195.85814,113.727835 196.460336,108.341519 196.6,102.933333 C196.666667,101.966667 196.666667,101 196.666667,100 C196.687291,90.803491 195.373609,81.6526334 192.766667,72.8333333 Z" id="Shape" fill="#B05629" opacity="0.249365942"></path>
            <circle id="Oval" fill="#FFCFB6" opacity="0.372112772" cx="66.6666667" cy="63.3333333" r="43.3333333"></circle>
            <path d="M168.833333,167.866667 C150.668488,186.292752 125.874355,196.666664 100,196.666664 C74.1256454,196.666664 49.3315124,186.292752 31.1666667,167.866667 C53.1844357,176.055656 76.5092835,180.167155 100,180 C123.490717,180.167155 146.815564,176.055656 168.833333,167.866667 Z" id="Shape" fill="#E37048"></path>
            <ellipse id="Oval" fill="#E37048" cx="106.666667" cy="133.333333" rx="23.3333333" ry="13.3333333"></ellipse>
            <path d="M100,200 C45.8861625,200.154189 1.53151766,157.108518 0.0651,103.014333 C0.00333333333,102.1159 0,101.075833 0,100 C0.00498484895,78.5979505 6.86966634,57.7609786 19.5866667,40.5468667 C38.4452415,15.0446717 68.2827859,-0.000216029495 100.000412,0.000106090317 C131.718038,0.000428210129 161.555277,15.045922 180.413333,40.5485 C193.128337,57.7630235 199.992816,78.5988063 200,100 C200,101.075833 199.996667,102.1159 199.9284,103.157567 C199.465337,120.006651 194.692204,136.455975 186.064467,150.9359 C181.934871,157.958802 176.940295,164.435726 171.1978,170.214867 C152.450126,189.334177 126.777188,200.074282 100,200 Z M100,6.66666667 C70.4118063,6.73806214 42.5922056,20.7673368 24.9446667,44.5166667 C13.0764741,60.5811377 6.67038368,80.026988 6.66666667,100 C6.66666667,100.922867 6.66333333,101.8164 6.72526667,102.708333 C7.80323477,140.068611 31.0691947,173.181536 65.8521882,186.859829 C100.635182,200.538122 140.224162,192.142687 166.4616,165.5241 C171.815826,160.133419 176.473424,154.093026 180.325533,147.5441 C188.397292,134.001444 192.85401,118.611976 193.268233,102.851733 C193.336667,101.8164 193.333333,100.922867 193.333333,100 C193.35056,91.1250654 192.083075,82.2943658 189.5703,73.7825667 L189.566967,73.7614 C186.511988,63.2264082 181.597361,53.3227494 175.055233,44.5182333 C157.408366,20.7679594 129.588551,6.73797754 100,6.66666667 Z" id="Shape" fill="#B04329"></path>
            <path d="M106.666667,150 C91.7122333,150 80,142.679033 80,133.333333 C80,123.987633 91.7122333,116.666667 106.666667,116.666667 C121.6211,116.666667 133.333333,123.987633 133.333333,133.333333 C133.333333,142.679033 121.6211,150 106.666667,150 Z M106.666667,123.333333 C94.8795667,123.333333 86.6666667,128.6035 86.6666667,133.333333 C86.6666667,138.063167 94.8795667,143.333333 106.666667,143.333333 C118.453767,143.333333 126.666667,138.063167 126.666667,133.333333 C126.666667,128.6035 118.453767,123.333333 106.666667,123.333333 Z" id="Shape" fill="#B04329"></path>
            <g id="Group" opacity="0.5" transform="translate(0.000000, 23.333333)" fill="#B04329">
                <path d="M96.3672,159.965833 L96.3314,159.965833 C95.4466118,159.960477 94.6006123,159.601945 93.9814067,158.969914 C93.362201,158.337883 93.0210858,157.484712 93.0338667,156.6 C93.0645727,154.777239 94.5442254,153.312043 96.3672,153.299233 L96.4323,153.299233 C98.2611201,153.333921 99.7204177,154.835757 99.7025569,156.664819 C99.6846961,158.49388 98.1963488,159.966933 96.3672,159.9659 L96.3672,159.965833 Z M109.700533,159.765633 C108.380977,159.770645 107.183366,158.994748 106.64862,157.78839 C106.113875,156.582032 106.343232,155.173599 107.2331,154.199233 C107.832605,153.53969 108.67606,153.154438 109.5671,153.133167 C127.049873,152.416916 144.348392,149.275447 160.966667,143.798833 C162.711191,143.267276 164.567464,144.188986 165.198433,145.900067 C165.779183,147.648275 164.842038,149.5378 163.098833,150.1334 C145.886587,155.794301 127.971222,159.036043 109.866667,159.765633 L109.700533,159.765633 Z M83.0664333,159.3327 C82.9762215,159.337973 82.8857979,159.326941 82.7995,159.300133 C64.7208496,157.962337 46.9282931,154.033284 29.9674667,147.633467 L29.9316333,147.633467 C28.2380373,146.951894 27.4068308,145.035619 28.0664,143.333333 C28.741257,141.632846 30.6544738,140.787011 32.3664,141.4323 C48.7308982,147.594409 65.8946365,151.377495 83.3333333,152.666 C84.2148275,152.734224 85.0315959,153.154932 85.5989667,153.833 C86.1796956,154.503438 86.4576941,155.383982 86.3672,156.266333 C86.226678,157.988839 84.7945755,159.319214 83.0664,159.332667 L83.0664333,159.3327 Z" id="Shape"></path>
                <path d="M22.2688667,22.5325667 C20.7012488,22.5347621 19.3440119,21.4441571 19.0086536,19.9128292 C18.6732952,18.3815012 19.4504831,16.8234607 20.8755333,16.1702667 C37.3937899,8.74971139 54.9411308,3.87503293 72.92,1.71223333 C74.101001,1.56104446 75.2729492,2.05139671 75.994383,2.99857912 C76.7158169,3.94576153 76.8771335,5.20587457 76.4175664,6.30424583 C75.9579993,7.40261709 74.9473676,8.17237785 73.7663667,8.32356667 C56.4567673,10.4027489 39.5617404,15.0907559 23.6557,22.2282 C23.2208903,22.4288058 22.7477217,22.5326515 22.2688667,22.5325667 Z M177.7311,22.5325667 C177.252301,22.5326274 176.779192,22.4287822 176.344433,22.2282 C160.40093,15.0718446 143.462964,10.3785685 126.11,8.30893333 C124.285302,8.07317649 122.996429,6.40395571 123.229944,4.5789696 C123.463459,2.75398349 125.131095,1.4630608 126.956367,1.69433333 C144.978375,3.85020253 162.568338,8.73117762 179.124333,16.1702333 C180.549792,16.8231384 181.327349,18.3813815 180.991937,19.9129545 C180.656525,21.4445274 179.298868,22.5351619 177.731,22.5325333 L177.7311,22.5325667 Z M86.6080667,7.08666667 C84.8086126,7.08538916 83.3349912,5.65612885 83.2787295,3.85755413 C83.2224678,2.05897941 84.6038773,0.540410083 86.3997333,0.426666667 C95.4142968,-0.136029214 104.45509,-0.138823472 113.47,0.4183 C115.30735,0.533359375 116.703543,2.11609992 116.588483,3.95344999 C116.473424,5.79080007 114.890683,7.1869926 113.053333,7.07193333 C104.318076,6.53263422 95.5577878,6.53535054 86.8228667,7.08006667 C86.7513,7.08496667 86.6797,7.08666667 86.6080667,7.08666667 Z" id="Shape"></path>
                <path d="M192.766933,52.8320333 C192.208208,52.8344885 191.657709,52.6974224 191.165367,52.4332667 C175.604083,44.5324886 158.864404,39.2078279 141.5983,36.6666667 C139.790102,36.3574744 138.572665,34.6439244 138.875774,32.834697 C139.178884,31.0254695 140.88833,29.8022763 142.698567,30.0993 C160.696858,32.7626482 178.144986,38.3234677 194.365233,46.5657667 C195.137417,47.000654 195.711351,47.7174888 195.9668,48.5661 C196.265748,49.5735979 196.070223,50.6631389 195.439608,51.503821 C194.808993,52.3445031 193.817703,52.8371224 192.7668,52.8320667 L192.766933,52.8320333 Z M7.23306667,52.8320333 C6.00118026,52.8414075 4.86808787,52.1591852 4.3,51.0660667 C3.87944723,50.2904489 3.78355231,49.3797349 4.03333333,48.5335333 C4.29905023,47.6996122 4.86990017,46.9968033 5.63163333,46.5657667 C15.1189845,41.5709239 25.1373399,37.6575038 35.4983,34.8991 C37.2609552,34.4421069 39.0703504,35.4566576 39.5998667,37.1989 C40.0851563,38.975301 39.0410957,40.8093406 37.2658667,41.2989 C27.4036001,43.9428515 17.8666059,47.6773651 8.83136667,52.4333333 C8.34032811,52.6978103 7.79079308,52.8348932 7.23306667,52.8320333 Z M49.3326667,38.2991667 C47.6200277,38.3012323 46.1845111,37.0051153 46.0122226,35.3011631 C45.8399341,33.5972108 46.9869447,32.0399716 48.6653333,31.6991667 C50.4647285,31.3589386 52.2084558,32.5113264 52.6008667,34.3000667 C52.9642261,36.1033277 51.8016359,37.8610998 50,38.2324333 L49.9674333,38.2324333 C49.7605706,38.2873805 49.5464337,38.3098928 49.3326667,38.2991667 Z M62.4674333,35.9993667 C60.7175509,35.9999615 59.2652192,34.647108 59.1418588,32.9015791 C59.0184984,31.1560502 60.2661268,29.6123846 61.9987,29.3668667 C74.5834186,27.545149 87.284135,26.6426937 100,26.6666667 C105.332033,26.6666667 110.667333,26.8326667 115.8659,27.1321667 C117.055567,27.1975999 118.119163,27.8949256 118.653545,28.959832 C119.187927,30.0247384 119.111307,31.2942374 118.452726,32.2871427 C117.794145,33.280048 116.654401,33.8443916 115.4655,33.7662667 C110.498033,33.4993333 105.266933,33.3333333 100,33.3333333 C87.6079403,33.3204235 75.2310573,34.2004801 62.9655,35.9666667 C62.7994667,35.9666667 62.6333333,35.9993333 62.4674333,35.9993333 L62.4674333,35.9993667 Z M128.964833,34.8991 C128.853165,34.9042676 128.741336,34.8932991 128.6328,34.8665333 C128.600233,34.8991 128.600233,34.8665333 128.600233,34.8665333 C127.412774,34.745853 126.381452,33.997118 125.898951,32.9054145 C125.416451,31.8137109 125.55702,30.5470348 126.267136,29.5876816 C126.977252,28.6283285 128.14764,28.1239277 129.332667,28.2665333 C131.085823,28.4636549 132.380219,29.9950832 132.282527,31.7565802 C132.184836,33.5180772 130.729036,34.8969818 128.964833,34.8990333 L128.964833,34.8991 Z" id="Shape"></path>
                <path d="M196.5983,82.9345667 C196.126749,82.9335842 195.660767,82.8326191 195.2311,82.6383333 C179.154223,75.64766 162.314414,70.5626133 145.055333,67.4869667 C143.882076,67.2740276 142.911969,66.4505048 142.51136,65.3273892 C142.11075,64.2042735 142.340682,62.9527034 143.114325,62.0453151 C143.887968,61.1379268 145.087435,60.7129866 146.259767,60.9309667 C164.047923,64.1056661 181.403395,69.3513501 197.972,76.5609667 C199.403601,77.2080815 200.189396,78.7666198 199.858391,80.3024179 C199.527386,81.8382159 198.169363,82.9347051 196.5983,82.9346667 L196.5983,82.9345667 Z M3.40163333,82.9345667 C1.83103908,82.935026 0.47302988,81.839457 0.141290743,80.3042972 C-0.190448394,78.7691374 0.594021875,77.210591 2.02466667,76.5625 C5.50133333,74.9918667 9.248,73.4537667 13.164,71.9922 C14.8861477,71.3592034 16.7960821,72.2368091 17.4374823,73.9558446 C18.0788825,75.6748801 17.2106156,77.5890781 15.4947333,78.2388667 C11.7187,79.6483667 8.11193333,81.1278667 4.77206667,82.6366667 C4.34174913,82.8325566 3.87450638,82.9341292 3.4017,82.9345667 L3.40163333,82.9345667 Z M26.9595667,74.1829333 C25.3076377,74.1831046 23.9047088,72.9734886 23.6617433,71.339525 C23.4187779,69.7055614 24.4090585,68.1400824 25.9895667,67.6596 C30.2343667,66.3656667 34.6223667,65.1629333 39.0266667,64.0821333 C40.1849721,63.7935775 41.4091561,64.1464373 42.2361686,65.0072428 C43.0631812,65.8680482 43.3667575,67.1053752 43.0320692,68.2512022 C42.6973809,69.3970292 41.7755267,70.2764162 40.6152,70.5567333 C36.3281,71.6081667 32.0605,72.7784 27.9296667,74.0365667 C27.6154141,74.1333846 27.2884621,74.1827178 26.9596333,74.1829333 L26.9595667,74.1829333 Z M52.8482333,67.8206333 C51.1290752,67.8186895 49.6933838,66.5096148 49.5331747,64.7979368 C49.3729655,63.0862589 50.5407958,61.5335005 52.2297333,61.2125667 C69.9430165,57.8387932 87.9623294,56.3396716 105.9896,56.74 C107.814398,56.7839545 109.264374,58.2875288 109.242092,60.1127197 C109.21981,61.9379106 107.73356,63.4056395 105.908233,63.4050333 L105.826667,63.4033333 C88.2711644,63.0219411 70.7240713,64.4828321 53.4733333,67.7620333 C53.2673468,67.8015416 53.0580405,67.8211651 52.8483,67.8206333 L52.8482333,67.8206333 Z M132.4869,65.4703667 C132.341075,65.4699666 132.195407,65.4607274 132.0507,65.4427 C127.6985,64.8714 123.294033,64.4124333 118.968033,64.0771333 C117.780637,63.9852566 116.732454,63.2668907 116.218323,62.1926372 C115.704193,61.1183836 115.802224,59.8514471 116.47549,58.8690704 C117.148756,57.8866937 118.294971,57.3381232 119.482367,57.43 C123.929033,57.7750667 128.4472,58.2470667 132.9166,58.8313667 C134.657468,59.060054 135.922548,60.5998296 135.809142,62.3519882 C135.695736,64.1041469 134.242723,65.4679978 132.4869,65.4703667 Z" id="Shape"></path>
                <path d="M106.565767,138.699533 C104.954433,138.699533 103.3431,138.661011 101.731767,138.583967 C99.8931181,138.494825 98.4742059,136.933151 98.5612,135.0944 C98.6854977,133.272537 100.225397,131.873421 102.0508,131.923833 C103.557956,131.997167 105.064033,132.033511 106.569033,132.032867 L106.663333,132.032867 L108.496,132.014967 C109.38632,131.977053 110.253286,132.305628 110.894836,132.924112 C111.536385,133.542596 111.89647,134.396955 111.891167,135.288067 C111.923944,137.128208 110.459774,138.647009 108.619667,138.681633 C107.9362,138.693033 107.2461,138.683333 106.565767,138.699533 Z M121.829433,137.5472 C120.087499,137.544718 118.641092,136.20164 118.509742,134.464663 C118.378393,132.727686 119.606381,131.182371 121.328133,130.917967 C125.985825,130.207022 130.585638,129.158244 135.091167,127.779933 L136.669933,127.285133 C145.137702,124.679413 153.905284,123.172925 162.757167,122.8027 L183.1608,122.5667 C184.999667,122.54814 186.506231,124.022196 186.527782,125.86103 C186.549333,127.699865 185.07773,129.208824 183.238933,129.233367 L162.939467,129.4661 C154.697022,129.817446 146.533658,131.22432 138.6491,133.6523 L137.0638,134.148733 C132.242584,135.62348 127.320794,136.746758 122.337133,137.509733 C122.169076,137.534913 121.999366,137.547437 121.829433,137.5472 Z M88.6588667,137.0703 C88.4580198,137.070879 88.2575478,137.052925 88.06,137.016667 C84.0838519,136.293003 80.153509,135.337043 76.2891667,134.1537 L74.6713333,133.649133 C66.7571914,131.214455 58.5628352,129.807519 50.2898333,129.462933 L16.0774667,128.198233 C14.2439481,128.121422 12.8172224,126.577317 12.8853112,124.743454 C12.9533999,122.909591 14.4907003,121.475536 16.3248667,121.5349 L50.5566333,122.801167 C59.4106128,123.170484 68.1803903,124.676425 76.6503667,127.281967 L78.2617,127.7849 C81.8695127,128.889785 85.5390107,129.782161 89.2513,130.457433 C90.9486588,130.764872 92.1310277,132.316554 91.9771093,134.03465 C91.8231909,135.752746 90.3838433,137.069557 88.6588667,137.0704 L88.6588667,137.0703 Z" id="Shape"></path>
                <path d="M194.798167,99.0333333 L194.5996,99.0333333 L162.766933,97.1990333 C155.405841,96.8773962 148.098987,95.7824853 140.966933,93.9323667 C140.10868,93.7126478 139.37309,93.1605295 138.922414,92.397794 C138.471737,91.6350585 138.343001,90.7243695 138.5646,89.8666 C139.053755,88.1040658 140.859725,87.0536529 142.6336,87.4999333 C149.331458,89.2194535 156.190398,90.2356958 163.0991,90.5321667 L195,92.3666667 C196.801221,92.4742216 198.190512,93.994392 198.135908,95.7979949 C198.081304,97.6015978 196.602595,99.0349395 194.798167,99.0333333 Z M5.19856667,99.0333333 C3.38223125,99.0342528 1.89923148,97.5813522 1.86291203,95.7653798 C1.82659258,93.9494073 3.25031364,92.4383723 5.06523333,92.3666667 L36.6342333,91.0987667 C38.4751825,91.0259571 40.0265905,92.4593175 40.0994,94.3002667 C40.1722095,96.1412158 38.7388492,97.6926238 36.8979,97.7654333 L5.33203333,99.0333333 L5.19856667,99.0333333 Z M50.1009,97.1990333 C48.3070215,97.2098753 46.8299228,95.7918606 46.7675667,93.9990333 C46.7203056,92.8046472 47.3157986,91.6762869 48.3285113,91.0413029 C49.341224,90.4063188 50.6163034,90.3618058 51.6708314,90.9246225 C52.7253593,91.4874392 53.3980889,92.5715258 53.4342333,93.7663 C53.460088,94.643665 53.1356396,95.4952357 52.5325333,96.1329667 C51.9463473,96.7920005 51.1128601,97.1780872 50.2311,97.1990333 L50.1009,97.1990333 Z M63.3333333,95.8333333 C61.608887,95.8170881 60.1795908,94.4921585 60.0328898,92.7738867 C59.8861888,91.0556149 61.0701987,89.5075689 62.7669333,89.1992333 C66.7864172,88.495646 70.7596186,87.5493594 74.6647333,86.3655667 L76.2988333,85.8333333 C89.1734428,81.8929889 102.692745,80.5003471 116.100267,81.7333333 C116.981714,81.8123068 117.794847,82.2409138 118.358141,82.9234728 C118.921435,83.6060318 119.18799,84.4857114 119.0983,85.3661333 C118.917972,87.1810157 117.315654,88.5160327 115.498033,88.3658 C102.956004,87.2374152 90.3140564,88.5388547 78.2649667,92.1988 L76.6666667,92.7327333 C72.4786316,94.0099273 68.2146176,95.0232051 63.8997333,95.7666 C63.713478,95.8067633 63.5238229,95.8291085 63.3333333,95.8333333 Z M128.964833,90.4655 C128.708648,90.4602628 128.453095,90.4379914 128.199867,90.3988333 C126.420857,89.9630943 125.312365,88.1899358 125.699867,86.3998 C126.083664,84.6998581 127.712587,83.582827 129.436633,83.837318 C131.16068,84.091809 132.397387,85.6318428 132.273652,87.3701733 C132.149917,89.1085038 130.707545,90.4578403 128.964833,90.4655667 L128.964833,90.4655 Z" id="Shape"></path>
                <path d="M186.666667,113.333333 L160,113.333333 C158.159051,113.333333 156.666667,111.840949 156.666667,110 C156.666667,108.159051 158.159051,106.666667 160,106.666667 L186.666667,106.666667 C188.507616,106.666667 190,108.159051 190,110 C190,111.840949 188.507616,113.333333 186.666667,113.333333 Z M146.666667,113.333333 C144.825718,113.333333 143.333333,111.840949 143.333333,110 C143.333333,108.159051 144.825718,106.666667 146.666667,106.666667 C148.507616,106.666667 150,108.159051 150,110 C149.994163,111.838526 148.505193,113.327496 146.666667,113.333333 Z" id="Shape"></path>
                <path d="M70,113.333333 L43.3333333,113.333333 C41.4923842,113.333333 40,111.840949 40,110 C40,108.159051 41.4923842,106.666667 43.3333333,106.666667 L70,106.666667 C71.8409492,106.666667 73.3333333,108.159051 73.3333333,110 C73.3333333,111.840949 71.8409492,113.333333 70,113.333333 Z M30,113.333333 L23.3333333,113.333333 C21.4923842,113.333333 20,111.840949 20,110 C20,108.159051 21.4923842,106.666667 23.3333333,106.666667 L30,106.666667 C31.8409492,106.666667 33.3333333,108.159051 33.3333333,110 C33.3333333,111.840949 31.8409492,113.333333 30,113.333333 Z" id="Shape"></path>
            </g>
        </g>
    </g>
</svg>