<?xml version="1.0" encoding="UTF-8"?>
<svg width="200px" height="200px" viewBox="0 0 200 200" version="1.1" xmlns="http://www.w3.org/2000/svg" xmlns:xlink="http://www.w3.org/1999/xlink">
    <!-- Generator: Sketch 48.2 (47327) - http://www.bohemiancoding.com/sketch -->
    <title>mars</title>
    <desc>Created with Sketch.</desc>
    <defs></defs>
    <g id="intrepid-icon-set" stroke="none" stroke-width="1" fill="none" fill-rule="evenodd" transform="translate(-200.000000, 0.000000)">
        <g id="mars" transform="translate(200.000000, 0.000000)">
            <circle id="Oval" fill="#F15C5C" fill-rule="nonzero" cx="100" cy="100" r="96.6666667"></circle>
            <path d="M157.6182,22.3818 C186.184088,60.8633384 182.24193,114.465256 148.353593,148.353593 C114.465256,182.24193 60.8633384,186.184088 22.3818,157.6182 C44.9954224,188.081352 83.3383375,202.499872 120.421255,194.485084 C157.504172,186.470297 186.470297,157.504172 194.485084,120.421255 C202.499872,83.3383375 188.081352,44.9954224 157.6182,22.3818 Z" id="Shape" fill="#8C3269" opacity="0.2"></path>
            <circle id="Oval" fill="#FF7D88" fill-rule="nonzero" cx="66.6666667" cy="63.3333333" r="43.3333333"></circle>
            <path d="M122.327104,74.5123144 C104.141261,74.8759462 86.2875411,69.6095471 71.2104374,59.4341811 C69.6966894,58.3860643 69.3192208,56.3092625 70.3673375,54.7955145 C71.4154543,53.2817665 73.492256,52.9042977 75.0060041,53.9524144 C87.8315374,62.8309811 110.191537,72.0824144 143.834137,65.7476478 C145.64266,65.4081763 147.38429,66.5979939 147.72562,68.4061667 C148.066951,70.2143396 146.878925,71.9571913 145.071104,72.3003811 C137.574919,73.7424447 129.96068,74.4829559 122.327104,74.5123144 Z" id="Shape" fill="#8C3269" fill-rule="nonzero" opacity="0.5" transform="translate(108.779118, 63.944590) rotate(-8.000000) translate(-108.779118, -63.944590) "></path>
            <path d="M91.8326667,55.2164667 C91.619652,55.2164458 91.4071168,55.1962782 91.1979,55.1562333 C70.5175667,51.1604667 56.6243333,39.7981667 56.6243333,26.88 C56.6243333,25.0390508 58.1167175,23.5466667 59.9576667,23.5466667 C61.7986158,23.5466667 63.291,25.0390508 63.291,26.88 C63.291,36.3559 75.2864333,45.2931 92.461,48.61 C94.1466584,48.9361411 95.3089036,50.4892582 95.1463592,52.1984661 C94.9838149,53.907674 93.5496509,55.2138746 91.8327333,55.2164333 L91.8326667,55.2164667 Z" id="Shape" fill="#8C3269" fill-rule="nonzero" opacity="0.5"></path>
            <path d="M107.320967,56.6633333 C105.480018,56.6633333 103.987633,55.1709492 103.987633,53.33 C103.987633,51.4890508 105.480018,49.9966667 107.320967,49.9966667 C115.789745,50.0418568 124.226734,48.9575339 132.408867,46.7723667 C146.7448,42.8612333 157.3112,35.8820667 161.399767,27.6252333 C162.216872,25.9748224 164.217189,25.2992948 165.8676,26.1164 C167.518011,26.9335053 168.193539,28.9338224 167.376433,30.5842333 C162.441533,40.5468 150.335433,48.7906 134.1668,53.2046667 C125.411553,55.5449428 116.383485,56.7080685 107.320967,56.6633333 Z" id="Shape" fill="#8C3269" fill-rule="nonzero" opacity="0.5"></path>
            <path d="M174.231767,124.490567 C173.9974,124.490567 173.766267,124.479167 173.531767,124.458 C171.698908,124.283616 170.354449,122.656425 170.528833,120.823567 C170.703217,118.990708 172.330408,117.646249 174.163267,117.820633 C174.641767,117.849933 175.6216,117.3112 176.5591,115.950633 C177.947535,113.734183 178.773351,111.212041 178.9647,108.603633 C179.247244,105.921116 179.047702,103.209688 178.3755,100.597433 C178.055953,99.4483261 178.374938,98.2160584 179.211905,97.3663266 C180.048872,96.5165948 181.276171,96.1789958 182.429983,96.4811144 C183.583795,96.783233 184.488146,97.6789916 184.801267,98.8298667 C185.689291,102.22234 185.959442,105.746954 185.5988,109.235133 C185.310766,112.977777 184.089795,116.588649 182.047367,119.738067 C180.391077,122.519888 177.463716,124.299955 174.231767,124.490567 Z" id="Shape" fill="#8C3269" fill-rule="nonzero" opacity="0.5"></path>
            <path d="M174.264333,140.947267 C173.841,140.947267 173.417967,140.927733 172.991533,140.887033 C167.975267,140.410133 163.7207,136.749667 161.005867,130.582667 C158.465244,124.286485 157.539805,117.454824 158.3138,110.709633 C158.681604,106.465663 159.803794,102.321381 161.6276,98.4716667 C162.150357,97.4017276 163.20421,96.6919506 164.392183,96.6097019 C165.580156,96.5274532 166.721767,97.0852283 167.386983,98.0729187 C168.052199,99.060609 168.139957,100.328161 167.6172,101.3981 C166.144834,104.526772 165.240988,107.892498 164.947933,111.337867 C164.282051,116.95146 165.024901,122.642512 167.1094,127.8971 C168.782733,131.7008 171.155633,134.015267 173.623067,134.249633 C180.498067,134.923467 188.974633,124.285433 190.579433,107.4202 C192.4349,87.8726667 185.455733,70.5435333 175.332033,69.5816667 C167.431633,68.8183333 159.0787,75.9618667 153.3496,88.1721667 C152.846852,89.2554312 151.803001,89.9869673 150.613198,90.0898525 C149.423394,90.1927377 148.269462,89.6512491 147.588222,88.670367 C146.906982,87.6894848 146.80254,86.4191066 147.314433,85.3401333 C154.374967,70.2831667 165.123667,61.9059 175.963533,62.9443 C190.156233,64.2952 199.488933,84.1080333 197.213533,108.051733 C195.426433,126.8685 185.4785,140.945633 174.264333,140.947267 Z" id="Shape" fill="#8C3269" fill-rule="nonzero" opacity="0.5"></path>
            <path d="M161.748033,177.073567 C161.058452,177.074706 160.385778,176.860159 159.8242,176.459967 C145.4004,166.2321 137.5,140.553333 140.162767,112.561833 C140.567566,108.233853 141.285592,103.940912 142.3112,99.7167667 C142.747164,97.9279532 144.550703,96.8312523 146.339517,97.2672167 C148.12833,97.703181 149.225031,99.5067198 148.789067,101.295533 C147.839736,105.207844 147.173941,109.183556 146.796867,113.1917 C144.391267,138.487933 151.334633,162.267233 163.678367,171.020467 C164.863034,171.859926 165.368048,173.369653 164.926911,174.752956 C164.485773,176.136259 163.199972,177.074892 161.748033,177.073533 L161.748033,177.073567 Z" id="Shape" fill="#8C3269" fill-rule="nonzero" opacity="0.5"></path>
            <path d="M127.3112,110.966667 L127.181,110.965033 C126.297703,110.931662 125.46388,110.548614 124.863113,109.900227 C124.262346,109.25184 123.943893,108.391274 123.977867,107.508 C124.114397,100.853599 125.822077,94.3257237 128.9616,88.4569 C129.85522,86.848161 131.883161,86.2674899 133.49282,87.1594522 C135.102478,88.0514146 135.685237,90.0787571 134.794933,91.6893333 C132.14508,96.6366295 130.719628,102.147 130.638033,107.758667 C130.570421,109.547848 129.101656,110.964149 127.3112,110.966667 Z" id="Shape" fill="#8C3269" fill-rule="nonzero" opacity="0.5"></path>
            <path d="M58.0013,142.441733 C57.1170806,142.442735 56.2689341,142.09124 55.6446333,141.465067 C52.6791333,138.496333 48.9324,138.1057 47.435,139.606333 C46.1303895,140.895325 44.0296737,140.888651 42.7332799,139.591396 C41.4368861,138.29414 41.431608,136.19342 42.7214667,134.889667 C47.1485667,130.467467 54.8959333,131.286167 60.3581333,136.751633 C61.3111597,137.704948 61.5962064,139.138422 61.0803933,140.383815 C60.5645802,141.629208 59.349453,142.441346 58.0014667,142.441633 L58.0013,142.441733 Z" id="Shape" fill="#8C3269" fill-rule="nonzero" opacity="0.5"></path>
            <path d="M78.7050917,159.909654 C77.6880556,159.910109 76.7263606,159.446605 76.0931095,158.650768 C75.4598585,157.854932 75.2242252,156.813697 75.453125,155.822754 C77.429025,147.303887 73.6297,141.953433 65.6935,134.015467 C57.0444,125.368 45.0131667,123.325467 38.8575667,129.4712 C34.2809,134.049667 35.9475667,143.447433 42.4936333,149.9953 C47.4773667,154.975767 54.5672,156.308633 57.9721333,152.903833 C58.9057559,151.87796 59.3827318,150.516916 59.2937333,149.132667 C59.257254,147.292217 60.7183022,145.769982 62.5587,145.730967 C64.3765735,145.750975 65.8658704,147.180409 65.9604,148.995933 C66.0980925,152.19735 64.9140244,155.314662 62.6856667,157.617367 C56.6212,163.683433 45.4493333,162.374867 37.7800667,154.708833 C28.519,145.4494 26.8881333,132.013533 34.144,124.757667 C42.8873333,116.011 59.1570333,118.0503 70.4070333,129.301933 C80.0782667,138.9748 84.4700583,146.455887 81.950525,157.329754 C81.71656,158.33615 80.6347489,159.196116 78.7050917,159.909654 Z" id="Shape" fill="#8C3269" fill-rule="nonzero" opacity="0.5"></path>
            <path d="M66.9759,179.093767 C65.4067295,179.094934 64.0492223,178.001521 63.7160772,176.468122 C63.382932,174.934724 64.1643696,173.376606 65.5925667,172.726567 C67.7435359,171.754695 69.7018837,170.40337 71.3738333,168.7373 C72.6754396,167.435694 74.7857603,167.435694 76.0873666,168.7373 C77.3889728,170.038906 77.3889729,172.149227 76.0873667,173.450833 C73.8513839,175.682368 71.2313446,177.492438 68.353,178.794167 C67.9206905,178.991414 67.4510823,179.093582 66.9759,179.093767 Z" id="Shape" fill="#8C3269" fill-rule="nonzero" opacity="0.5"></path>
            <path d="M4.26756667,112.091467 C3.17089476,112.090627 2.14467886,111.550856 1.52262304,110.647675 C0.900567233,109.744493 0.762131898,108.593273 1.15233333,107.568367 C2.53673115,103.891307 4.68586964,100.549985 7.45766667,97.7653 C16.1979333,89.0283333 29.1666667,85.7063667 43.9974,88.4293667 C45.8043252,88.7653413 46.9982366,90.5006475 46.6661461,92.3082905 C46.3340556,94.1159335 44.6013192,95.3135716 42.7929667,94.9853667 C30.2083333,92.6790667 19.3163,95.3353667 12.1712333,102.4787 C10.064895,104.600583 8.43280414,107.145285 7.3828,109.944667 C6.88906694,111.236268 5.65031893,112.089926 4.26756667,112.091467 Z" id="Shape" fill="#8C3269" fill-rule="nonzero" opacity="0.5"></path>
            <path d="M58.4766667,99.8535 C58.0038402,99.8530825 57.5365739,99.7515211 57.1062333,99.5556333 C55.3777333,98.7727667 53.6134,98.0598667 51.8653333,97.4365 C50.1313525,96.8198557 49.2255723,94.9142975 49.8422167,93.1803167 C50.458861,91.4463359 52.3644192,90.5405557 54.0984,91.1572 C56.0222333,91.8408 57.9590667,92.6236667 59.8536,93.4814333 C61.2849991,94.1289861 62.070156,95.6879062 61.7383186,97.2235207 C61.4064812,98.7591352 60.0476923,99.854761 58.4766333,99.8535 L58.4766667,99.8535 Z" id="Shape" fill="#8C3269" fill-rule="nonzero" opacity="0.5"></path>
            <path d="M97.0442667,197.338867 C95.517549,197.340165 94.1850495,196.304221 93.8098853,194.824316 C93.434721,193.34441 94.112777,191.79878 95.4557333,191.0726 C97.3795667,190.0342 101.7448,183.1901 103.115233,172.0817 C103.741614,166.868425 103.640829,161.593411 102.815767,156.407867 C100.772069,144.434423 95.5906453,133.216797 87.7995,123.8981 C85.4560623,120.997016 82.9429444,118.2372 80.2733333,115.633133 C76.1350379,111.568418 71.5921195,107.937327 66.7154,104.796467 C65.7129187,104.153341 65.1296913,103.024251 65.1854138,101.834514 C65.2411364,100.644777 65.9273433,99.5751419 66.9855472,99.0285305 C68.043751,98.4819191 69.3131854,98.5413743 70.3156667,99.1845 C75.5724798,102.572711 80.4707682,106.487196 84.9348,110.867433 C87.7923511,113.657469 90.4836474,116.612853 92.9948,119.718333 C101.522683,129.943893 107.18512,142.248825 109.4043,155.3775 C110.324323,161.173479 110.433883,167.069241 109.729833,172.8954 C108.349633,184.096567 103.6784,194.208733 98.6263333,196.938367 C98.1403727,197.201056 97.5966825,197.338691 97.0442667,197.338867 Z" id="Shape" fill="#8C3269" fill-rule="nonzero" opacity="0.5"></path>
            <path d="M6.50716667,81.1766667 C5.0213257,81.1776794 3.71417396,80.1952481 3.30199767,78.7677205 C2.88982137,77.3401929 3.47213009,75.8122095 4.72983333,75.0210667 C12.5664057,70.1914075 21.4805752,67.3853827 30.6706,66.8553667 C32.5070573,66.7259203 34.100737,68.1097261 34.2301833,69.9461833 C34.3596297,71.7826406 32.9758239,73.3763203 31.1393667,73.5057667 C23.0435249,73.9620214 15.187831,76.4223091 8.27803333,80.6656 C7.74775737,80.9995594 7.13384158,81.1767336 6.50716667,81.1766667 Z" id="Shape" fill="#8C3269" fill-rule="nonzero" opacity="0.5"></path>
            <path d="M97.2819,101.043333 C96.411682,101.044381 95.5758614,100.703619 94.9544333,100.094433 C80.6302353,85.5932085 61.8731606,76.2914494 41.66,73.6653667 C39.8275928,73.4873837 38.486417,71.8576405 38.6644,70.0252333 C38.842383,68.1928262 40.4721262,66.8516504 42.3045333,67.0296333 C64.0570862,69.7073558 84.2586892,79.6824981 99.6092333,95.3255333 C100.580164,96.2717738 100.880892,97.7119875 100.369744,98.967697 C99.8585967,100.223406 98.6375238,101.044158 97.2817667,101.0433 L97.2819,101.043333 Z" id="Shape" fill="#8C3269" fill-rule="nonzero" opacity="0.5"></path>
            <path d="M125.0228,186.201167 C124.757357,186.201719 124.49283,186.17002 124.235033,186.106767 C123.375888,185.898955 122.634544,185.358234 122.174206,184.603644 C121.713868,183.849054 121.572276,182.942455 121.7806,182.083433 C125.158258,167.972898 124.586145,153.204837 120.126967,139.3979 C119.56695,137.643245 120.535395,135.766834 122.29005,135.206817 C124.044705,134.6468 125.921116,135.615245 126.481133,137.3699 C131.309255,152.342061 131.924147,168.354128 128.258467,183.652467 C127.897322,185.146938 126.560288,186.200106 125.0228,186.201167 Z" id="Shape" fill="#8C3269" fill-rule="nonzero" opacity="0.5"></path>
            <path d="M86.1070691,175.984049 C84.5938544,175.985631 83.2694262,174.967714 82.881593,173.505042 C82.4937599,172.042371 83.1398388,170.501967 84.4550357,169.753583 C86.0305691,168.856916 86.3821357,165.375316 84.4941024,162.058283 C83.6285933,160.458326 82.2968534,159.15951 80.6757357,158.334316 C79.8098651,157.852324 78.7715324,157.791216 77.8551024,158.168316 C76.8200564,158.757364 75.5493812,158.749476 74.521728,158.147623 C73.4940748,157.545771 72.8655685,156.44139 72.8729613,155.25049 C72.8803542,154.05959 73.522523,152.963097 74.5575691,152.374049 C77.3325871,150.899445 80.6505917,150.863033 83.4573024,152.276383 C86.3512807,153.67769 88.7383448,155.943591 90.2883691,158.760716 C93.9879024,165.258116 92.8746357,172.631149 87.7525691,175.547816 C87.2514043,175.834011 86.6841945,175.984383 86.1070691,175.984049 Z" id="Shape-Copy" fill="#8C3269" fill-rule="nonzero" transform="translate(82.671050, 163.612851) rotate(-30.000000) translate(-82.671050, -163.612851) "></path>
            <path d="M83.0247235,35.4961858 C81.0036784,35.098128 79.2619043,33.827164 78.26622,32.0239293 C77.2735695,30.2387972 76.9425288,28.1606938 77.3313812,26.1554912 C77.8840944,21.9275389 81.7436712,18.9369171 85.9757392,19.4573463 C87.41518,19.7249905 88.366279,21.1073711 88.1017276,22.5473767 C87.8371762,23.9873823 86.456836,24.9414454 85.0162581,24.6799906 C83.9750965,24.4919882 82.827612,25.6303855 82.5540246,27.118871 C82.3964793,27.8917761 82.5114789,28.6953902 82.8794723,29.3930899 C83.1041923,29.8315518 83.5065746,30.1522373 83.9841249,30.2734618 C85.3340068,30.5216108 86.2723134,31.7576243 86.1484761,33.1245206 C86.0246389,34.491417 84.8794738,35.5386752 83.5069734,35.5401858 C83.3452705,35.5402734 83.1838246,35.525519 83.0247235,35.4961858 Z" id="Shape-Copy-2" fill="#953770" fill-rule="nonzero" transform="translate(82.659288, 27.469398) rotate(116.000000) translate(-82.659288, -27.469398) "></path>
            <path d="M174.389302,95.7417614 C172.093133,95.2895163 170.114252,93.8455368 168.983026,91.7968288 C167.855247,89.7686879 167.479142,87.4076936 167.920928,85.1295241 C168.548882,80.3260234 172.933861,76.9282902 177.742037,77.519565 C179.377428,77.8236435 180.458,79.3942067 180.157435,81.0302393 C179.85687,82.6662719 178.288625,83.750211 176.651943,83.4531646 C175.469048,83.2395695 174.165358,84.5329361 173.854527,86.2240481 C173.675535,87.1021683 173.806189,88.0151779 174.224277,88.807855 C174.479588,89.3060044 174.936747,89.6703446 175.479306,89.8080714 C177.012946,90.0900007 178.078984,91.4942719 177.938289,93.047243 C177.797594,94.600214 176.496538,95.7900348 174.9372,95.7917511 C174.753484,95.7918507 174.570061,95.7750878 174.389302,95.7417614 Z" id="Shape-Copy-3" fill="#8C3269" fill-rule="nonzero" transform="translate(173.974120, 86.622292) scale(-1, 1) rotate(96.000000) translate(-173.974120, -86.622292) "></path>
            <ellipse id="Oval" fill="#FE5865" fill-rule="nonzero" transform="translate(45.000000, 50.500000) rotate(-29.220760) translate(-45.000000, -50.500000) " cx="45" cy="50.5" rx="9" ry="7.5"></ellipse>
            <path d="M44.6374265,60.9936824 C41.1558569,61.118966 37.8809586,59.373243 36.0917228,56.4382946 C33.4563999,51.8121504 35.7569034,45.6076956 41.2193676,42.6066986 C46.6840568,39.6067938 53.2729316,40.9303009 55.9082772,45.5554419 C58.5436001,50.1815862 56.2430966,56.386041 50.7806324,59.387038 L50.7795199,59.3881303 C48.9050461,60.4286503 46.7907236,60.9813373 44.6374265,60.9936824 Z M47.4069178,45.4400781 C46.0131225,45.4558299 44.6463932,45.8199565 43.4356781,46.4981035 C40.1584176,48.2984922 38.6417401,51.7806065 40.0541981,54.2612961 C41.4655435,56.7408933 45.2816347,57.2938593 48.5643219,55.4956553 C51.8415824,53.6952666 53.3582599,50.21206 51.9458019,47.7324628 C50.9723907,46.2122665 49.2326344,45.333586 47.4069178,45.4400558 L47.4069178,45.4400781 Z" id="Shape" fill="#8C3269" fill-rule="nonzero"></path>
            <ellipse id="Oval" fill="#FE5865" fill-rule="nonzero" transform="translate(119.000000, 26.000000) rotate(-29.220760) translate(-119.000000, -26.000000) " cx="119" cy="26" rx="11" ry="9"></ellipse>
            <path d="M117.827751,38.9924189 C113.554915,39.1427592 109.535722,37.0478916 107.339842,33.5259536 C104.105582,27.9745805 106.928927,20.5292347 113.63286,16.9280383 C120.339524,13.3281526 128.425871,14.9163611 131.660158,20.4665303 C134.894418,26.0179034 132.071073,33.4632492 125.36714,37.0644456 L125.365774,37.0657564 C123.065284,38.3143804 120.470434,38.9776048 117.827751,38.9924189 Z M121.226672,20.3280938 C119.516105,20.3469958 117.838755,20.7839478 116.352878,21.5977242 C112.330785,23.7581907 110.469408,27.9367278 112.202879,30.9135553 C113.934985,33.889072 118.61837,34.5526312 122.647122,32.3947864 C126.669215,30.23432 128.530592,26.054472 126.797121,23.0789553 C125.602479,21.2547199 123.467324,20.2003032 121.226672,20.328067 L121.226672,20.3280938 Z" id="Shape" fill="#8C3269" fill-rule="nonzero"></path>
            <ellipse id="Oval" fill="#FE5865" fill-rule="nonzero" transform="translate(28.776508, 109.269699) rotate(-53.220760) translate(-28.776508, -109.269699) " cx="28.7765075" cy="109.269699" rx="8.5" ry="6.5"></ellipse>
            <path d="M28.1979454,118.517417 C25.0328821,118.630172 22.0557018,117.059022 20.4291238,114.417568 C18.0333758,110.254038 20.1247426,104.670029 25.0906191,101.969132 C30.0585184,99.2692176 36.0484046,100.460374 38.4441733,104.623001 C40.8399214,108.786531 38.7485545,114.37054 33.7826781,117.071437 L33.7816666,117.07242 C32.0775996,118.008888 30.1554882,118.506307 28.1979454,118.517417 Z M30.7156648,104.519173 C29.4485781,104.53335 28.2060969,104.861064 27.1054468,105.471396 C24.1261191,107.091746 22.7473213,110.225649 24.0313741,112.45827 C25.3144154,114.689907 28.7835892,115.187577 31.7678503,113.569193 C34.747178,111.948843 36.1259758,108.813957 34.841923,106.58232 C33.9570037,105.214143 32.3754071,104.42333 30.7156648,104.519153 L30.7156648,104.519173 Z" id="Shape" fill="#8C3269" fill-rule="nonzero" transform="translate(29.436649, 109.523103) rotate(-24.000000) translate(-29.436649, -109.523103) "></path>
            <ellipse id="Oval" fill="#FE5865" fill-rule="nonzero" transform="translate(115.289471, 117.091387) scale(-1, 1) rotate(-56.220760) translate(-115.289471, -117.091387) " cx="115.289471" cy="117.091387" rx="9.3412331" ry="7.64282708"></ellipse>
            <path d="M113.105539,127.839265 C109.477035,127.966935 106.063924,126.187967 104.199175,123.197126 C101.452632,118.482884 103.850225,112.160274 109.543226,109.102127 C115.238545,106.045093 122.105495,107.393804 124.852062,112.107025 C127.598605,116.821267 125.201012,123.143878 119.508011,126.202024 L119.506852,126.203138 C117.553268,127.263473 115.349714,127.826685 113.105539,127.839265 Z M115.991913,111.989464 C114.539295,112.005516 113.114884,112.376577 111.853073,113.067638 C108.4375,114.902313 106.856813,118.450739 108.328882,120.97867 C109.799791,123.505488 113.776936,124.068984 117.198164,122.236536 C120.613737,120.401861 122.194424,116.852322 120.722355,114.325504 C119.707862,112.776358 117.894682,111.880944 115.991913,111.989441 L115.991913,111.989464 Z" id="Shape" fill="#8C3269" fill-rule="nonzero" transform="translate(114.525618, 117.655267) scale(-1, 1) rotate(-27.000000) translate(-114.525618, -117.655267) "></path>
            <path d="M100,200 C44.771525,200 6.76353751e-15,155.228475 0,100 C-6.76353751e-15,44.771525 44.771525,1.01453063e-14 100,0 C155.228475,-1.01453063e-14 200,44.771525 200,100 C199.937433,155.202538 155.202538,199.937433 100,200 Z M100,6.66666667 C48.4534233,6.66666667 6.66666667,48.4534233 6.66666667,100 C6.66666667,151.546577 48.4534233,193.333333 100,193.333333 C151.546577,193.333333 193.333333,151.546577 193.333333,100 C193.27556,48.477373 151.522627,6.72444033 100,6.66666667 Z" id="Shape" fill="#8C3269" fill-rule="nonzero"></path>
        </g>
    </g>
</svg>