<?xml version="1.0" encoding="UTF-8"?>
<svg width="200px" height="200px" viewBox="0 0 200 200" version="1.1" xmlns="http://www.w3.org/2000/svg" xmlns:xlink="http://www.w3.org/1999/xlink">
    <!-- Generator: Sketch 48.2 (47327) - http://www.bohemiancoding.com/sketch -->
    <title>2825722 - flag moon planet science solar space system</title>
    <desc>Created with Sketch.</desc>
    <defs></defs>
    <g id="Page-1" stroke="none" stroke-width="1" fill="none" fill-rule="evenodd">
        <g id="2825722---flag-moon-planet-science-solar-space-system">
            <circle id="Oval" fill="#EEF6FF" fill-rule="nonzero" cx="100" cy="120" r="76.6666667"></circle>
            <path d="M143.279,56.721 C164.105696,87.1672033 160.29643,128.128958 134.212694,154.212694 C108.128958,180.29643 67.1672033,184.105696 36.721,163.279 C54.1116443,188.70867 85.0350639,201.258185 115.228842,195.139492 C145.422619,189.020799 169.020799,165.422619 175.139492,135.228842 C181.258185,105.035064 168.70867,74.1116443 143.279,56.721 Z" id="Shape" fill="#2C4B75" opacity="0.2"></path>
            <circle id="Oval" fill="#FFFFFF" fill-rule="nonzero" opacity="0.75" cx="73.3333333" cy="93.3333333" r="36.6666667"></circle>
            <ellipse id="Oval" fill="#CED8EE" fill-rule="nonzero" transform="translate(79.676683, 77.701150) rotate(-29.220760) translate(-79.676683, -77.701150) " cx="79.6766835" cy="77.7011495" rx="10.5747667" ry="8.75726667"></ellipse>
            <ellipse id="Oval" fill="#CED8EE" fill-rule="nonzero" transform="translate(68.936773, 162.298867) rotate(-53.153530) translate(-68.936773, -162.298867) " cx="68.9367731" cy="162.298867" rx="5.94843333" ry="7.93093333"></ellipse>
            <ellipse id="Oval" fill="#CED8EE" fill-rule="nonzero" transform="translate(109.252865, 127.931047) rotate(-72.364710) translate(-109.252865, -127.931047) " cx="109.252865" cy="127.931047" rx="13.2183333" ry="11.8965"></ellipse>
            <path d="M100,200 C55.81722,200 20,164.18278 20,120 C20,75.81722 55.81722,40 100,40 C144.18278,40 180,75.81722 180,120 C179.949485,164.161839 144.161839,199.949485 100,200 Z M100,46.6666667 C59.4991183,46.6666667 26.6666667,79.4991183 26.6666667,120 C26.6666667,160.500882 59.4991183,193.333333 100,193.333333 C140.500882,193.333333 173.333333,160.500882 173.333333,120 C173.287611,79.5180722 140.481928,46.7123889 100,46.6666667 Z" id="Shape" fill="#5A5A95" fill-rule="nonzero"></path>
            <path d="M78.0696667,90.2604333 C77.2322956,90.2611195 76.3966086,90.1853945 75.573,90.0342 C72.1811776,89.5304946 69.2143855,87.4830896 67.5400771,84.4906207 C65.8657687,81.4981519 65.6730613,77.898626 67.0183,74.7445 C69.766337,68.1188482 76.6986957,64.2414249 83.7826333,65.3678333 C87.1748945,65.8705065 90.1422377,67.9179551 91.8161971,70.910943 C93.4901564,73.9039309 93.681441,77.5040117 92.3340667,80.6575333 C91.033143,83.8972148 88.6449403,86.5829337 85.5795,88.2535667 C83.2880415,89.5513085 80.7030257,90.2421071 78.0696667,90.2604333 Z M81.2728,71.8083 C79.7823526,71.8274164 78.3213953,72.2262702 77.028,72.9671667 C75.3184979,73.8813022 73.97842,75.3593692 73.2356667,77.15 C72.6063943,78.4502855 72.6518812,79.9759559 73.3575013,81.2364425 C74.0631214,82.496929 75.3399132,83.3333151 76.7773333,83.4766667 C78.6910978,83.7800973 80.6509033,83.4120582 82.3242,82.435 L82.3242,82.4333333 C84.0357979,81.5226099 85.3767266,80.0441467 86.1165333,78.2520333 C86.7459708,76.952285 86.7009908,75.4270542 85.9960531,74.1666573 C85.2911155,72.9062605 84.0150722,72.0695612 82.5781333,71.9255333 C82.147464,71.8470489 81.7105621,71.8077991 81.2728,71.8082667 L81.2728,71.8083 Z" id="Shape" fill="#5A5A95" fill-rule="nonzero"></path>
            <path d="M43.3691333,71.3216 C42.3669109,71.3234632 41.4173122,70.8731756 40.7845,70.096 C39.02131,67.6709414 38.9499338,64.4057919 40.6054667,61.906 C42.0275373,59.2143507 43.9967465,56.8498146 46.3866667,54.9642 C52.6236333,49.8714333 59.3293667,48.833 62.3306667,52.5081333 C63.4556539,53.8839408 63.3031358,55.9004604 61.9840138,57.0914094 C60.6648917,58.2823583 58.6433252,58.2286774 57.3892667,56.9694 C54.8340674,57.2268649 52.4410067,58.3407939 50.5989,60.1302 C48.4868723,61.5851478 46.9190516,63.7015433 46.1425333,66.1458333 C46.8225548,67.1681298 46.8850459,68.4816314 46.3051497,69.5638697 C45.7252535,70.6461079 44.5970108,71.3215781 43.3692,71.3216 L43.3691333,71.3216 Z M45.9472667,65.8805333 L45.9506,65.8821667 L45.9472667,65.8805333 Z" id="Shape" fill="#5A5A95" fill-rule="nonzero"></path>
            <path d="M158.235667,72.8515667 C157.054134,72.8515107 155.960889,72.2260862 155.361987,71.2075896 C154.763085,70.1890931 154.748,68.9296833 155.322333,67.8971333 C154.259231,65.4834541 152.292391,63.5826363 149.843833,62.6025333 C148.409608,63.4654494 146.557872,63.1310322 145.516082,61.8209563 C144.474292,60.5108804 144.565509,58.6314013 145.729267,57.4283667 C147.494756,55.7590565 150.10548,55.3482982 152.298267,56.3948333 C156.385346,58.0335531 159.668617,61.2069884 161.4454,65.2359667 C162.561587,67.3932016 162.238375,70.0144813 160.6316,71.8359667 C160.004156,72.4860286 159.139141,72.8526953 158.235667,72.8515667 Z" id="Shape" fill="#5A5A95" fill-rule="nonzero"></path>
            <path d="M57.041,189.879567 C55.5544261,189.872806 54.1032465,189.425341 52.871,188.593767 C49.6541557,186.615949 48.6376917,182.411968 50.5956,179.182967 C51.6085483,177.670639 53.6472342,177.250249 55.1758171,178.238496 C56.7044,179.226744 57.1578524,181.258332 56.1945667,182.802767 C56.2596667,182.744167 56.3605667,182.9053 56.5786667,183.053433 C56.7316229,183.171697 56.9229695,183.229103 57.1157667,183.214567 C57.5942812,182.492816 58.3462536,181.997232 59.1982187,181.842135 C60.0501838,181.687038 60.9285636,181.885822 61.6307333,182.392633 C63.1383361,183.482653 63.4971431,185.578324 62.4380333,187.1078 C61.218291,188.879032 59.1912073,189.920086 57.041,189.879567 Z" id="Shape" fill="#5A5A95" fill-rule="nonzero"></path>
            <path d="M154.547533,179.093333 C153.362387,179.110731 152.209296,178.708302 151.292333,177.957267 C149.99921,176.897951 149.690676,175.044672 150.570855,173.623545 C151.451034,172.202418 153.247689,171.652993 154.772167,172.338767 C157.063336,171.094838 158.777192,169.004216 159.547567,166.513567 C158.574546,165.153915 158.759695,163.28372 159.980423,162.141248 C161.201152,160.998776 163.0795,160.937761 164.3718,161.9986 C167.347067,164.436767 166.735133,169.4221 162.887433,174.119367 C160.955431,176.903102 157.91499,178.716439 154.547533,179.093333 Z" id="Shape" fill="#5A5A95" fill-rule="nonzero"></path>
            <path d="M143.0371,95.3222667 C141.524037,95.3244996 140.199339,94.3071668 139.811075,92.8447663 C139.422811,91.3823659 140.068426,89.8419197 141.383333,89.0933333 C142.2004,88.6278333 142.5259,86.3313 141.158733,83.9273333 C139.7883,81.5266333 137.652867,80.6314333 136.8293,81.1018 C135.794136,81.6919329 134.522659,81.6844888 133.494476,81.0822756 C132.466292,80.4800624 131.837862,79.3747194 131.84623,78.183186 C131.854599,76.9916526 132.498493,75.8952454 133.535033,75.3075333 C137.929567,72.8059 143.824733,75.1447667 146.953,80.6314333 C150.074733,86.1214333 149.078667,92.3811 144.684133,94.8843667 C144.182839,95.1717955 143.61495,95.3227812 143.0371,95.3222667 Z" id="Shape" fill="#5A5A95" fill-rule="nonzero"></path>
            <path d="M70.8984333,172.361667 C65.3237353,172.189574 60.4556071,168.540114 58.7272,163.237333 C57.8220669,160.633918 58.2701977,157.75088 59.922867,155.545042 C61.5755363,153.339204 64.2165464,152.099127 66.9694,152.236367 L66.9727333,152.236367 C69.7000829,152.284912 72.3396282,153.208699 74.5020333,154.871467 C79.5573667,158.6589 81.0710333,164.887733 77.9525667,169.052767 C76.2603348,171.210046 73.6457889,172.437619 70.9050333,172.3617 L70.8984333,172.361667 Z M66.9726667,158.903 C66.3255099,158.762924 65.6560787,159.012904 65.2591303,159.542871 C64.8621819,160.072838 64.8105492,160.785553 65.1269667,161.3672 C66.0212515,163.827492 68.286156,165.525846 70.8984667,165.695 L70.9018,165.695 C71.5389303,165.74463 72.1654909,165.510568 72.6140333,165.055367 C73.3399333,164.0887 72.5749667,161.759467 70.5046667,160.206733 C69.4934015,159.412128 68.2576751,158.955996 66.9726667,158.903 Z" id="Shape" fill="#5A5A95" fill-rule="nonzero"></path>
            <path d="M145.009767,159.921867 C143.443532,159.937068 141.919641,159.413594 140.693367,158.439133 C139.763756,157.693176 139.303286,156.507556 139.485728,155.3297 C139.66817,154.151845 140.465745,153.161088 141.577468,152.731319 C142.689191,152.30155 143.945795,152.498203 144.873067,153.247067 C145.618954,153.230614 146.30906,152.848439 146.718767,152.224933 C147.248565,151.692461 147.472767,150.927971 147.314467,150.1937 C146.386445,149.445951 145.928364,148.259549 146.113072,147.082163 C146.297781,145.904778 147.097161,144.915647 148.209579,144.488002 C149.321997,144.060358 150.578106,144.259302 151.503933,145.009767 C153.187725,146.406758 154.129051,148.505201 154.052767,150.691733 C153.885456,154.971126 150.935294,158.636015 146.7904,159.713533 C146.206812,159.851051 145.609338,159.920955 145.009767,159.921867 Z" id="Shape" fill="#5A5A95" fill-rule="nonzero"></path>
            <path d="M49.541,121.0026 C49.3379149,121.00261 49.1352524,120.984089 48.9355333,120.947267 C46.7231349,120.514707 44.8153081,119.125841 43.7239667,117.153333 C41.5571634,113.188229 42.4659057,108.24719 45.9017,105.3125 C47.6244706,103.85672 49.9032579,103.238154 52.1256667,103.623033 C53.936056,103.957423 55.1325899,105.696111 54.7981999,107.5065 C54.4638099,109.316889 52.7251227,110.513423 50.9147333,110.179033 C50.6276402,110.163613 50.3466738,110.265935 50.1367333,110.462367 C49.2072766,111.332529 48.9549878,112.707592 49.515,113.851033 C49.6396522,114.109828 49.8659103,114.305448 50.14,114.3914 C51.8345022,114.702902 53.0123553,116.254473 52.8569028,117.970342 C52.7014503,119.686211 51.2639284,121.000837 49.5410333,121.002733 L49.541,121.0026 Z" id="Shape" fill="#5A5A95" fill-rule="nonzero"></path>
            <path d="M108.505867,144.3685 C107.057756,144.368293 105.618331,144.144858 104.2383,143.706067 C100.26427,142.422835 97.0333484,139.493658 95.3678667,135.664067 C91.8628119,127.589406 94.8584021,118.166838 102.382833,113.598633 C105.947645,111.416505 110.284483,110.890306 114.267702,112.156614 C118.25092,113.422922 121.487742,116.356868 123.138033,120.196933 C124.866904,124.093345 125.090734,128.492157 123.7663,132.543933 C121.770191,139.369718 115.613859,144.13996 108.505867,144.3685 Z M109.977233,118.1592 C108.487818,118.172787 107.029085,118.584107 105.751967,119.3506 C101.172255,122.195541 99.3439772,127.95019 101.441967,132.916667 C102.336101,135.017454 104.0897,136.632845 106.256667,137.3519 C111.216344,138.510745 116.186716,135.46935 117.412267,130.525733 L117.412267,130.5241 C118.237267,128.041896 118.113178,125.342029 117.063967,122.945967 C116.169884,120.845229 114.416378,119.229846 112.2495,118.510733 C111.51474,118.277018 110.748235,118.158426 109.9772,118.159167 L109.977233,118.1592 Z" id="Shape" fill="#5A5A95" fill-rule="nonzero"></path>
            <polygon id="Shape" fill="#FF9797" fill-rule="nonzero" points="123.333333 10 123.333333 6.66666667 100 6.66666667 100 30 123.333333 30 123.333333 33.3333333 140 33.3333333 140 10"></polygon>
            <polygon id="Shape" fill="#FFFFFF" fill-rule="nonzero" opacity="0.5" points="123.333333 10 123.333333 6.66666667 100 6.66666667 100 16.6666667 123.333333 16.6666667 123.333333 20 140 20 140 10"></polygon>
            <path d="M140,36.6666667 L123.333333,36.6666667 C122.449208,36.6668966 121.601228,36.315781 120.976057,35.6906099 C120.350886,35.0654388 119.99977,34.2174588 120,33.3333333 L100,33.3333333 C99.1158746,33.3335633 98.2678946,32.9824477 97.6427234,32.3572766 C97.0175523,31.7321054 96.6664367,30.8841254 96.6666667,30 L96.6666667,6.66666667 C96.6664367,5.78254122 97.0175523,4.93456123 97.6427234,4.30939011 C98.2678946,3.68421899 99.1158746,3.33310337 100,3.33333333 L123.333333,3.33333333 C124.217459,3.33310337 125.065439,3.68421899 125.69061,4.30939011 C126.315781,4.93456123 126.666897,5.78254122 126.666667,6.66666667 L140,6.66666667 C140.884125,6.6664367 141.732105,7.01755232 142.357277,7.64272344 C142.982448,8.26789456 143.333563,9.11587456 143.333333,10 L143.333333,33.3333333 C143.333563,34.2174588 142.982448,35.0654388 142.357277,35.6906099 C141.732105,36.315781 140.884125,36.6668966 140,36.6666667 Z M126.666667,30 L136.666667,30 L136.666667,13.3333333 L123.333333,13.3333333 C122.449208,13.3335633 121.601228,12.9824477 120.976057,12.3572766 C120.350886,11.7321054 119.99977,10.8841254 120,10 L103.333333,10 L103.333333,26.6666667 L123.333333,26.6666667 C124.217459,26.6664367 125.065439,27.0175523 125.69061,27.6427234 C126.315781,28.2678946 126.666897,29.1158746 126.666667,30 Z" id="Shape" fill="#5A5A95" fill-rule="nonzero"></path>
            <path d="M123.333333,33.3333333 C122.449208,33.3335633 121.601228,32.9824477 120.976057,32.3572766 C120.350886,31.7321054 119.99977,30.8841254 120,30 L120,10 C120,8.15905083 121.492384,6.66666667 123.333333,6.66666667 C125.174282,6.66666667 126.666667,8.15905083 126.666667,10 L126.666667,30 C126.666897,30.8841254 126.315781,31.7321054 125.69061,32.3572766 C125.065439,32.9824477 124.217459,33.3335633 123.333333,33.3333333 Z" id="Shape" fill="#5A5A95" fill-rule="nonzero"></path>
            <path d="M100,60 C99.1158746,60.00023 98.2678946,59.6491143 97.6427234,59.0239432 C97.0175523,58.3987721 96.6664367,57.5507921 96.6666667,56.6666667 L96.6666667,3.33333333 C96.6666667,1.49238417 98.1590508,3.38176876e-16 100,0 C101.840949,-3.38176876e-16 103.333333,1.49238417 103.333333,3.33333333 L103.333333,56.6666667 C103.333563,57.5507921 102.982448,58.3987721 102.357277,59.0239432 C101.732105,59.6491143 100.884125,60.00023 100,60 Z" id="Shape" fill="#5A5A95" fill-rule="nonzero"></path>
            <path d="M180,176.666667 C178.428086,176.65126 177.085053,175.529633 176.789737,173.985632 C176.49442,172.44163 177.328738,170.903548 178.784015,170.309139 C180.239291,169.714731 181.911845,170.228879 182.781934,171.538114 C183.652024,172.847349 183.478294,174.588498 182.366667,175.7 C181.72746,176.308452 180.882399,176.653617 180,176.666667 Z" id="Shape" fill="#6D6DAA" fill-rule="nonzero" opacity="0.600000024"></path>
            <path d="M196.666667,16.6666667 C189.802755,17.7527328 184.419399,23.1360882 183.333333,30 C182.247356,23.1360431 176.863957,17.7526443 170,16.6666667 C176.863912,15.5806006 182.247267,10.1972451 183.333333,3.33333333 C184.419508,10.19719 189.80281,15.5804924 196.666667,16.6666667 Z" id="Shape" fill="#FFF27D" fill-rule="nonzero"></path>
            <path d="M23.3333333,186.666667 C18.1854145,187.481246 14.1479124,191.518748 13.3333333,196.666667 C12.5187542,191.518748 8.48125216,187.481246 3.33333333,186.666667 C8.48125216,185.852088 12.5187542,181.814585 13.3333333,176.666667 C14.1479124,181.814585 18.1854145,185.852088 23.3333333,186.666667 Z" id="Shape" fill="#FFF27D" fill-rule="nonzero"></path>
            <path d="M183.333333,33.3333333 C181.758904,33.3329601 180.399136,32.2317164 180.0716,30.6917333 C179.267126,25.1134301 174.88496,20.7312099 169.306667,19.9266667 C167.767423,19.5994498 166.666771,18.2402234 166.666771,16.6665833 C166.666771,15.0929433 167.767423,13.7337168 169.306667,13.4065 C174.884908,12.6019754 179.267058,8.21983842 180.0716,2.6416 C180.398877,1.10151856 181.758795,0.000223946748 183.333267,0.000223946748 C184.907738,0.000223946748 186.267657,1.10151856 186.594933,2.6416 C187.399422,8.21994511 191.781655,12.6021776 197.36,13.4066667 C198.899244,13.7338835 199.999896,15.09311 199.999896,16.66675 C199.999896,18.24039 198.899244,19.5996165 197.36,19.9268333 C191.781725,20.7313518 187.399552,25.1135252 186.595033,30.6918 C186.267473,32.2317443 184.90773,33.3329511 183.333333,33.3333333 Z M178.577467,16.6666667 C180.446249,17.9405574 182.059443,19.553751 183.333333,21.4225333 C184.607224,19.553751 186.220418,17.9405574 188.0892,16.6666667 C186.220418,15.3927759 184.607224,13.7795823 183.333333,11.9108 C182.059443,13.7795823 180.446249,15.3927759 178.577467,16.6666667 Z" id="Shape" fill="#5A5A95" fill-rule="nonzero"></path>
            <path d="M13.3333333,200 C11.7589041,199.999627 10.399136,198.898383 10.0716,197.3584 C9.54724048,193.493184 6.50830443,190.45283 2.64333333,189.926667 C1.10258851,189.601106 0.000124366655,188.241348 0.000124366655,186.666583 C0.000124366655,185.091819 1.10258851,183.73206 2.64333333,183.4065 C6.50832446,182.880403 9.54731823,179.840086 10.0717333,175.974867 C10.39901,174.434785 11.7589284,173.333491 13.3334,173.333491 C14.9078716,173.333491 16.26779,174.434785 16.5950667,175.974867 C17.1193986,179.840109 20.158341,182.880497 24.0233333,183.406667 C25.5640782,183.732227 26.6665423,185.091985 26.6665423,186.66675 C26.6665423,188.241515 25.5640782,189.601273 24.0233333,189.926833 C20.1583422,190.45293 17.1193484,193.493247 16.5949333,197.358467 C16.2673805,198.898374 14.9076923,199.999571 13.3333333,200 Z M11.1784,186.666667 C11.971527,187.305453 12.6939579,188.027348 13.3333333,188.82 C13.9727087,188.027348 14.6951397,187.305453 15.4882667,186.666667 C14.6951397,186.02788 13.9727087,185.305986 13.3333333,184.513333 C12.6939579,185.305986 11.971527,186.02788 11.1784,186.666667 Z" id="Shape" fill="#5A5A95" fill-rule="nonzero"></path>
            <path d="M46.6666667,23.3333333 C46.4430081,23.3256618 46.2200894,23.3033922 45.9993333,23.2666667 C45.7909596,23.2295921 45.5891542,23.1621402 45.4003667,23.0664667 C45.1871616,22.9932668 44.9846496,22.8920108 44.7981667,22.7653667 C44.6321667,22.6333333 44.4661333,22.5 44.3,22.3666667 C43.0109331,21.0522891 43.0109331,18.9479775 44.3,17.6336 C45.2536008,16.6721024 46.694123,16.3830798 47.944814,16.9023141 C49.1955049,17.4215483 50.0077662,18.6458317 50,20 C49.9866436,20.8823368 49.641522,21.7272896 49.0333333,22.3666667 C48.8673333,22.5 48.6980333,22.6336 48.4994667,22.7654333 C48.3295029,22.8978043 48.1378608,22.9996819 47.9330667,23.0665333 C47.7336786,23.1671106 47.5193125,23.2347198 47.2983,23.2667333 C47.0897613,23.3050033 46.8786011,23.3272682 46.6666667,23.3333333 Z" id="Shape" fill="#6D6DAA" fill-rule="nonzero" opacity="0.600000024"></path>
            <path d="M183.333333,60 C182.897855,59.9946373 182.467653,59.9039492 182.067067,59.7330667 C181.659231,59.5716335 181.285836,59.3340758 180.9668,59.0330667 C180.823922,58.8742764 180.690237,58.7074487 180.5664,58.5334 C180.439639,58.3478029 180.338882,58.1457271 180.266933,57.9328 C180.170747,57.7435054 180.10275,57.541166 180.0651,57.3322 C179.978295,56.8921062 179.978295,56.4392938 180.0651,55.9992 C180.10275,55.790234 180.170747,55.5878946 180.266933,55.3986 C180.339244,55.1863349 180.439983,54.9848465 180.5664,54.7996333 C180.689383,54.6249878 180.823061,54.4581241 180.966667,54.3 C181.285216,53.9979938 181.658713,53.7598621 182.066933,53.5985 C183.308732,53.0794605 184.740705,53.3559567 185.7,54.3 C185.833333,54.466 185.966933,54.6320333 186.1004,54.7996667 C186.225554,54.9856196 186.326206,55.1869352 186.399867,55.3986333 C186.496496,55.5874525 186.56347,55.7900268 186.598433,55.9992333 C186.68958,56.4388925 186.68958,56.8925742 186.598433,57.3322333 C186.56347,57.5414399 186.496496,57.7440141 186.399867,57.9328333 C186.326567,58.1451956 186.225896,58.3470967 186.1004,58.5334333 C185.967067,58.6994333 185.833467,58.8654667 185.7,59.0331 C185.060489,59.6411111 184.215639,59.9862738 183.333333,60 Z" id="Shape" fill="#6D6DAA" fill-rule="nonzero" opacity="0.600000024"></path>
            <path d="M190,103.333333 C189.776237,103.327256 189.553209,103.304975 189.332667,103.266667 C189.124293,103.229592 188.922488,103.16214 188.7337,103.066467 C188.520495,102.993267 188.317983,102.892011 188.1315,102.765367 C187.9655,102.633333 187.799467,102.5 187.633333,102.366667 C187.339073,102.042429 187.102338,101.670326 186.933333,101.2664 C186.745768,100.87122 186.654389,100.437261 186.666667,100 C186.678213,99.1172945 187.023594,98.2717065 187.633333,97.6333333 L188.131367,97.2329333 C188.31785,97.1062892 188.520362,97.0050332 188.733567,96.9318333 C188.922162,96.8359493 189.12413,96.7690313 189.332667,96.7333333 C189.759727,96.6323854 190.20444,96.6323854 190.6315,96.7333333 C190.852598,96.7640332 191.067088,96.8311294 191.266267,96.9319 C191.478436,97.005154 191.679873,97.1064158 191.865233,97.233 C192.031233,97.3663333 192.200533,97.4999333 192.366533,97.6334 C192.975018,98.2725694 193.320231,99.1176055 193.333333,100 C193.327971,100.435478 193.237283,100.865681 193.0664,101.266267 C192.897396,101.670193 192.66066,102.042296 192.3664,102.366533 C192.2004,102.499867 192.0311,102.633467 191.8651,102.7653 C191.679739,102.891884 191.478303,102.993146 191.266133,103.0664 C191.066745,103.166977 190.852379,103.234586 190.631367,103.2666 C190.422919,103.304901 190.211849,103.327211 190,103.333333 Z" id="Shape" fill="#6D6DAA" fill-rule="nonzero" opacity="0.600000024"></path>
            <path d="M16.6666667,53.3333333 C16.2311884,53.3279706 15.8009861,53.2372825 15.4004,53.0664 C14.9925383,52.9050616 14.6190981,52.6675947 14.3,52.3666667 C13.0109331,51.0522891 13.0109331,48.9479775 14.3,47.6336 C14.6239235,47.3385445 14.9960804,47.1012674 15.4002667,46.9321 C16.0085591,46.6666256 16.684422,46.5971542 17.334,46.7333333 C17.5423715,46.7695577 17.7442214,46.836474 17.9329667,46.9319 C18.1451364,47.005154 18.3465726,47.1064158 18.5319333,47.233 C18.6979333,47.3663333 18.8672333,47.4999333 19.0332333,47.6334 C19.6417063,48.2725746 19.9869071,49.11761 20,50 C20.0086187,50.8866691 19.6601976,51.7395323 19.0331983,52.3665316 C18.406199,52.9935309 17.5533357,53.3419521 16.6666667,53.3333333 Z" id="Shape" fill="#6D6DAA" fill-rule="nonzero" opacity="0.600000024"></path>
            <path d="M190,193.333333 C189.776237,193.327256 189.553209,193.304975 189.332667,193.266667 C189.124293,193.229592 188.922488,193.16214 188.7337,193.066467 C188.520495,192.993267 188.317983,192.892011 188.1315,192.765367 C187.9655,192.633333 187.799467,192.5 187.633333,192.366667 C186.344266,191.052289 186.344266,188.947978 187.633333,187.6336 L188.131367,187.2332 C188.31785,187.106556 188.520362,187.0053 188.733567,186.9321 C188.922147,186.836124 189.124115,186.769116 189.332667,186.733333 C189.759727,186.632385 190.20444,186.632385 190.6315,186.733333 C190.852598,186.764033 191.067088,186.831129 191.266267,186.9319 C191.478436,187.005154 191.679873,187.106416 191.865233,187.233 C192.031233,187.366333 192.200533,187.499933 192.366533,187.6334 C193.6556,188.947778 193.6556,191.052089 192.366533,192.366467 C192.200533,192.4998 192.031233,192.6334 191.865233,192.765233 C191.679873,192.891818 191.478436,192.993079 191.266267,193.066333 C191.066879,193.166911 190.852512,193.23452 190.6315,193.266533 C190.42301,193.304864 190.211895,193.327195 190,193.333333 Z" id="Shape" fill="#6D6DAA" fill-rule="nonzero" opacity="0.600000024"></path>
        </g>
    </g>
</svg>