<?xml version="1.0" encoding="UTF-8"?>
<svg width="200px" height="200px" viewBox="0 0 200 200" version="1.1" xmlns="http://www.w3.org/2000/svg" xmlns:xlink="http://www.w3.org/1999/xlink">
    <!-- Generator: Sketch 48.2 (47327) - http://www.bohemiancoding.com/sketch -->
    <title>earth</title>
    <desc>Created with Sketch.</desc>
    <defs>
        <path d="M95.79762,0.333333333 C47.8761304,0.339437911 7.21281299,35.5473392 0.284330532,83.0325 L0.599151202,83.6666667 C4.34384622,92.4166667 14.2464841,90.8889667 19.2394108,80.3333333 C24.1657652,69.9183 28.6669884,52.5979333 42.5397354,53.6666667 C71.3878339,55.8889667 73.6067571,41.4443667 82.4831489,27 C88.0758259,17.8988333 104.267687,17.4740333 105.783473,33.6666667 C107.447782,51.4443667 130.19326,53.1110333 142.398269,47 C158.209204,39.0833333 152.384122,20.3333333 152.384122,20.3333333 L152.418041,18.7293333 C135.965548,6.74872554 116.140014,0.307400829 95.79762,0.333333333 Z" id="path-1"></path>
        <path d="M130.33203,1 C112.024632,3.7777 105.922243,16.5556333 107.031705,37.6666667 C107.68914,50.1770333 98.9625031,58.7297 87.0599983,61 C78.3223766,62.6666667 61.9905467,57.9435667 67.0882916,34.3333333 C71.526371,13.7777 46.7846218,12.8329 30.4734959,21 C9.39232754,31.5556333 16.0495631,52.1110333 27.1448781,61 C39.8535408,71.1812667 41.1986686,82.5326 23.8162603,84.3333333 C15.5837,84.6499396 7.46323129,82.341725 0.624415412,77.7411333 C27.857599,106.32222 69.7200088,115.426819 106.338441,100.732734 C142.956873,86.0386489 166.957596,50.5047785 166.946825,11 C166.946825,11 148.729633,-1.79133333 130.33203,1 Z" id="path-3"></path>
    </defs>
    <g id="intrepid-icon-set" stroke="none" stroke-width="1" fill="none" fill-rule="evenodd" transform="translate(-600.000000, 0.000000)">
        <g id="earth" transform="translate(600.000000, 0.000000)">
            <ellipse id="Oval" fill="#6AA1F4" fill-rule="nonzero" cx="99.8585337" cy="100" rx="96.529916" ry="96.6666667"></ellipse>
            <path d="M157.395223,22.3818 C185.9207,60.8633384 181.984119,114.465256 148.143723,148.353593 C114.303326,182.24193 60.7772374,186.184088 22.3501373,157.6182 C44.9317691,188.081352 83.2204419,202.499872 120.250899,194.485084 C157.281356,186.470297 186.206504,157.504172 194.209954,120.421255 C202.213403,83.3383375 187.81528,44.9954224 157.395223,22.3818 Z" id="Shape" fill="#5682DE" opacity="0.697690217"></path>
            <path d="M129.358708,84.231 C129.423218,87.0554513 128.12223,89.737375 125.865291,91.4325102 C123.608353,93.1276453 120.673081,93.6274796 117.98349,92.7746667 C108.047233,88.9293333 106.252809,74.2636667 117.98349,72.8396667 C121.881301,72.3666667 129.704885,78.024 129.358708,84.231 Z" id="Shape" fill="#4EE2C0" fill-rule="nonzero"></path>
            <ellipse id="Oval" fill="#8EBBFF" fill-rule="nonzero" cx="66.5723558" cy="63.3333333" rx="43.2720313" ry="43.3333333"></ellipse>
            <g id="Group-7" transform="translate(4.060914, 3.000000)">
                <mask id="mask-2" fill="white">
                    <use xlink:href="#path-1"></use>
                </mask>
                <use id="Shape" fill="#4EE2C0" fill-rule="nonzero" xlink:href="#path-1"></use>
                <ellipse id="Oval" fill="#FFFFFF" fill-rule="nonzero" opacity="0.5" mask="url(#mask-2)" cx="62.5114421" cy="60.3333333" rx="43.2720313" ry="43.3333333"></ellipse>
            </g>
            <g id="Group-5" transform="translate(29.441624, 89.000000)">
                <mask id="mask-4" fill="white">
                    <use xlink:href="#path-3"></use>
                </mask>
                <use id="Shape" fill="#4EE2C0" fill-rule="nonzero" xlink:href="#path-3"></use>
                <path d="M127.953599,-66.6182 C156.479076,-28.1366616 152.542495,25.4652562 118.702098,59.353593 C84.8617021,93.2419298 31.335613,97.1840877 -7.09148706,68.6182 C15.4901447,99.081352 53.7788175,113.499872 90.8092747,105.485084 C127.839732,97.470297 156.76488,68.5041715 164.768329,31.4212545 C172.771779,-5.66166248 158.373656,-44.0045776 127.953599,-66.6182 Z" id="Shape" fill="#3AC1BD" mask="url(#mask-4)"></path>
            </g>
            <path d="M99.8585337,200 C44.7081884,200 6.75396939e-15,155.228475 0,100 C-6.75396939e-15,44.771525 44.7081884,1.01453063e-14 99.8585337,0 C155.008879,-1.01453063e-14 199.717067,44.771525 199.717067,100 C199.654589,155.202538 154.982979,199.937433 99.8585337,200 Z M99.8585337,6.66666667 C48.3848781,6.66666667 6.65723558,48.4534233 6.65723558,100 C6.65723558,151.546577 48.3848781,193.333333 99.8585337,193.333333 C151.332189,193.333333 193.059832,151.546577 193.059832,100 C193.00214,48.477373 151.308274,6.72444033 99.8585337,6.66666667 Z" id="Shape" fill="#4563B9" fill-rule="nonzero"></path>
            <path d="M12.1816427,95.6868333 C12.1133727,95.6868333 12.0451693,95.6868333 11.9752684,95.6852 C7.2701659,95.4800086 3.16281529,92.4293688 1.60106516,87.98 L1.36213697,87.5096333 C0.547088436,85.8592224 1.22239073,83.8596366 2.87046686,83.0434334 C4.518543,82.2272302 6.51530009,82.9034891 7.33034867,84.5539 L7.64403761,85.1886667 C8.22647618,87.2461222 9.98158046,88.7550008 12.1006241,89.0200333 C14.3061663,89.0395667 17.7778148,87.2231667 20.2921528,81.9057667 C21.075543,80.2488667 21.8475826,78.4129333 22.6504785,76.5053667 C26.9559125,66.2758667 32.8476325,52.2426667 46.8561871,53.3429333 C69.0318049,55.0649333 73.5387534,46.7055667 79.7961887,35.1593333 C81.0200549,32.9018333 82.2812682,30.5776333 83.709911,28.2534 C87.392522,22.2709442 94.4447143,19.2676898 101.302189,20.7615333 C107.957793,22.3159 112.389981,28.1459667 113.158725,36.3556 C113.440499,40.9409779 116.095323,45.0452622 120.158808,47.1775333 C128.039183,50.8330945 137.137797,50.7746052 144.970658,47.0180333 C158.012183,40.4880333 153.464492,24.9721333 153.264575,24.3147 C152.721059,22.5560045 153.70414,20.6890693 155.460348,20.1447835 C157.216555,19.6004977 159.08085,20.5849712 159.624365,22.3436667 C161.929034,29.7639 162.455654,45.7177 147.948207,52.9817 C138.148114,57.7086444 126.733584,57.7176224 116.926088,53.0061 C110.931968,49.8166549 107.002893,43.7583527 106.530815,36.9774667 C106.026962,31.6047333 103.634518,28.1526 99.7906965,27.2541333 C95.723933,26.4276082 91.572488,28.2187807 89.3790131,31.7463333 C88.0153782,33.9647667 86.8142798,36.1848 85.6473329,38.3396667 C79.0453524,50.5239 72.802563,62.0278333 46.34591,59.9900667 C37.7659316,59.3536667 33.6669385,67.4949333 28.7845219,79.0949 C27.9426146,81.0968667 27.1315969,83.0223 26.3091953,84.7606 C23.1101606,91.5201667 17.7141716,95.6868333 12.1816427,95.6868333 Z" id="Shape" fill="#4563B9" fill-rule="nonzero"></path>
            <path d="M50.655771,176.7985 C42.6457185,176.45467 34.8807422,173.930955 28.1957227,169.4987 C26.6751359,168.464087 26.2799901,166.390941 27.3131399,164.8682 C28.3462896,163.345459 30.4165022,162.949753 31.9370891,163.984367 C32.3645502,164.2757 42.5340434,171.0856 52.9148706,170.0179 C58.4766581,169.441733 62.0588167,167.768567 62.7479404,165.4248 C63.4289423,163.100567 61.6801198,158.3496 54.5076475,152.602533 C46.7348763,146.453801 42.4267303,136.90892 42.9533827,127.003567 C43.5758342,121.1084 46.7663477,112.856433 58.4262628,107.0182 C69.6636765,101.3932 85.6809853,99.3001 94.5485895,106.193 C98.0982608,108.9518 101.888458,114.2887 99.7836731,124.038067 C97.9535991,132.514733 98.9840393,139.0462 102.762786,142.924733 C106.278705,146.215181 111.15192,147.627218 115.879171,146.725267 C124.64442,145.053733 133.785104,138.951933 133.149638,126.840833 C131.88027,102.6937 140.425997,89.5654333 159.274727,86.7041667 C178.758858,83.7533333 197.509961,96.7172 198.299842,97.2705667 C199.805612,98.3267744 200.171265,100.405397 199.116552,101.9133 C198.061838,103.421203 195.986156,103.787374 194.480386,102.731167 C194.306466,102.6091 177.084797,90.7438667 160.272647,93.2959333 C144.820904,95.6413 138.69678,105.568067 139.797087,126.490933 C140.505717,139.998433 131.60719,150.5111 117.124141,153.2748 C110.204106,154.591467 103.075887,152.469634 97.9976034,147.581467 C94.2236498,143.706133 90.3391862,136.232167 93.2760922,122.628667 C94.3943081,117.451267 93.476009,113.7973 90.4659399,111.458433 C84.7465091,107.013433 71.9846218,107.6824 61.403778,112.981767 C54.2053091,116.585267 50.224948,121.5397 49.5732046,127.7051 C49.244175,135.355627 52.6317452,142.692804 58.6651577,147.397467 C67.0582009,154.1211 70.8745278,161.376967 69.1336606,167.3047 C68.0658401,170.944033 64.5031872,175.519233 53.6006657,176.648767 C52.622256,176.749325 51.6393199,176.799303 50.655771,176.7985 Z" id="Shape" fill="#4563B9" fill-rule="nonzero"></path>
            <path d="M120.881817,96.67 C119.479177,96.6640072 118.089821,96.3974516 116.784289,95.8838667 C110.189684,93.3704447 106.045405,86.7973339 106.614762,79.7543 C107.342807,74.1496625 111.949404,69.8564366 117.583923,69.5313333 C121.460848,69.5099146 125.175957,71.0860706 127.857602,73.89 C130.952869,76.5032277 132.722248,80.36329 132.683132,84.4173333 L132.683132,84.4189667 C132.460939,88.6496454 130.268666,92.5305732 126.762154,94.9007333 C125.014869,96.0491072 122.971794,96.6638245 120.881817,96.67 Z M118.491004,76.1443 L118.385354,76.1491667 C115.79282,76.1060762 113.575991,78.0075055 113.220138,80.5795 C113.011357,84.5879907 115.426256,88.2678733 119.183357,89.6664 C120.483306,90.2240183 121.976653,90.0856192 123.152334,89.2985667 C124.871053,88.0869669 125.935067,86.1487282 126.035616,84.0463 C125.922239,81.9732193 124.929151,80.0476005 123.306749,78.7549667 C122.011753,77.4042756 120.328351,76.4916505 118.491004,76.1442 L118.491004,76.1443 Z" id="Shape" fill="#4563B9" fill-rule="nonzero"></path>
        </g>
    </g>
</svg>