<?xml version="1.0" ?><svg height="60" id="Science" viewBox="0 0 60 60" width="60" xmlns="http://www.w3.org/2000/svg"><title/><path d="M34.4363,57.5426A5.25919,5.25919,0,0,1,30.9836,59c-6.07511,0-11-12.9837-11-29s4.92489-29,11-29,11,12.9837,11,29c0,8.4441-1.36891,16.0453-3.55361,21.3452" style="fill:#fedbc1;fill-rule:evenodd"/><path d="M53.1099,13.2385A5.25979,5.25979,0,0,1,56.0983,15.5c3.0376,5.2612-5.7442,16.0182-19.61469,24.0263S8.9064,49.7612,5.8689,44.5s5.7442-16.0182,19.6147-24.0263c7.31279-4.222,14.58009-6.8371,20.26229-7.5951" style="fill:#fffad1;fill-rule:evenodd"/><path d="M5.4046,19.2188A5.25936,5.25936,0,0,1,5.8689,15.5c3.0375-5.2612,16.7442-3.0344,30.6147,4.9737S59.1359,39.2388,56.0983,44.5,39.3541,47.5344,25.4836,39.5263c-7.3128-4.2221-13.2112-9.2082-16.7087-13.7502" style="fill:#d4edff;fill-rule:evenodd"/><path d="M36.4836,20.47369c-1.8454-1.06543-3.687-2.02515-5.50183-2.8819-1.81348.85626-3.65417,1.81732-5.49817,2.8819A66.81772,66.81772,0,0,0,12.6083,29.99078,66.61249,66.61249,0,0,0,25.4836,39.52631c1.84479,1.06506,3.68573,2.02454,5.5,2.881,1.81427-.85651,3.65521-1.816,5.5-2.881A66.80112,66.80112,0,0,0,49.36849,30,66.80112,66.80112,0,0,0,36.4836,20.47369Z" style="fill:#750000;fill-rule:evenodd;opacity:0.2"/><path d="M41.76394,35.65936q.07791-1.02283.12793-2.07031c.01257-.26678.02472-.533.03455-.80194.03381-.9184.05719-1.84479.05719-2.78711,0-.9649-.02429-1.91364-.05933-2.85419-.00793-.20959-.017-.41748-.02661-.62573-.04065-.89227-.09308-1.77454-.16382-2.64-.00226-.02747-.00293-.0564-.00519-.08386l-.00079-.00055a61.37991,61.37991,0,0,0-1.54871-9.70459,61.56871,61.56871,0,0,0-9.19177,3.50421,61.37722,61.37722,0,0,0-9.19623-3.51721,61.37586,61.37586,0,0,0-1.55182,9.71759l-.00055.00037c-.0025.02777-.00323.05676-.00549.08435-.07074.86517-.123,1.747-.16376,2.639-.00958.20795-.01868.41553-.02655.62476-.035.941-.05939,1.89032-.05939,2.85577s.02429,1.91473.05933,2.85577c.00793.20953.017.4173.02661.62549.04071.894.09332,1.77777.16425,2.64478.00214.02612.00281.05359.00494.07971l.00079.00049a61.36167,61.36167,0,0,0,1.55157,9.71558,61.35852,61.35852,0,0,0,9.19244-3.51532,61.38588,61.38588,0,0,0,9.17981,3.5116,61.56867,61.56867,0,0,0,1.5611-9.71167l.00592-.00391C41.74508,36.02466,41.75045,35.83838,41.76394,35.65936Z" style="fill:#750000;fill-rule:evenodd;opacity:0.2"/><circle cx="30.9836" cy="30" r="5" style="fill:#ffc661"/><path d="M30.9836,28a4.98325,4.98325,0,0,1,4.74561,3.5A4.946,4.946,0,0,0,35.9836,30a5,5,0,0,0-10,0,4.946,4.946,0,0,0,.25439,1.5A4.98325,4.98325,0,0,1,30.9836,28Z" style="fill:#fff;fill-rule:evenodd;opacity:0.5"/><path d="M30.9834,60c-6.729,0-12-13.17773-12-30s5.271-30,12-30,12,13.17773,12,30c0,8.21289-1.32275,16.13184-3.62891,21.72607a.99971.99971,0,0,1-1.84863-.76172C39.71582,45.60205,40.9834,37.96094,40.9834,30c0-16.749-5.1709-28-10-28s-10,11.251-10,28,5.1709,28,10,28a4.293,4.293,0,0,0,2.79639-1.21143.99984.99984,0,1,1,1.31348,1.50781A6.21774,6.21774,0,0,1,30.9834,60Z" style="fill:#6d6daa"/><circle cx="36.62647" cy="54.5" r="3.64287" style="fill:#ff9797"/><path d="M36.62648,53.85706A3.63733,3.63733,0,0,1,39.93856,56a3.64289,3.64289,0,1,0-6.62421,0A3.63742,3.63742,0,0,1,36.62648,53.85706Z" style="fill:#fff;fill-rule:evenodd;opacity:0.5"/><path d="M13.01221,48.34961c-3.95264,0-6.73584-1.144-8.00928-3.34961C3.311,42.07031,4.57471,37.76758,8.561,32.88477c3.7793-4.62939,9.61182-9.34473,16.42236-13.27734C32.09473,15.502,39.61426,12.688,45.61377,11.88721a1,1,0,1,1,.26465,1.98242c-5.75.76709-13.00146,3.49023-19.895,7.47021-6.606,3.814-12.24316,8.36328-15.873,12.80957C6.73682,38.28174,5.50635,41.87207,6.73535,44c1.228,2.12793,4.95312,2.85742,10.21826,2.002,5.66553-.92041,12.42383-3.52783,19.02979-7.3418C50.48828,30.28564,57.647,20.18213,55.23193,16a4.29075,4.29075,0,0,0-2.44678-1.81592,1,1,0,0,1,.64941-1.8916A6.22177,6.22177,0,0,1,56.96436,15c3.36426,5.82764-5.41211,16.981-19.981,25.39258-6.81055,3.93164-13.81006,6.625-19.709,7.5835A26.7415,26.7415,0,0,1,13.01221,48.34961Z" style="fill:#6d6daa"/><circle cx="49.3798" cy="12.86312" r="3.64286" style="fill:#ff9797" transform="translate(0.184 26.41294) rotate(-29.99966)"/><path d="M47.55837,12.70831a3.643,3.643,0,0,1,4.97626,1.33337,3.58126,3.58126,0,0,1,.15082.3349,3.63521,3.63521,0,1,0-6.61127-.027A3.6163,3.6163,0,0,1,47.55837,12.70831Z" style="fill:#fff;fill-rule:evenodd;opacity:0.5"/><path d="M48.95508,48.34961a26.7415,26.7415,0,0,1-4.26221-.37354c-5.89893-.9585-12.89844-3.65137-19.70947-7.5835-7.11182-4.10645-13.30859-9.21191-17.001-14.00635a1.00028,1.00028,0,0,1,1.585-1.2207c3.53857,4.5957,9.522,9.51416,16.416,13.49463,6.606,3.814,13.36475,6.42139,19.03027,7.3418,5.2666.85742,8.99072.12646,10.21826-2.002,2.415-4.18213-4.74365-14.28564-19.24854-22.66016-6.606-3.814-13.36426-6.42139-19.02979-7.3418-5.26367-.856-8.98975-.126-10.21826,2.002a4.28621,4.28621,0,0,0-.34912,3.02686,1,1,0,0,1-1.96289.38379,6.21139,6.21139,0,0,1,.58008-4.41113c1.69092-2.93018,6.04883-3.98682,12.271-2.97559,5.89893.9585,12.89844,3.65186,19.709,7.5835C51.55225,28.019,60.32861,39.17236,56.96436,45,55.69092,47.20557,52.90723,48.34961,48.95508,48.34961Z" style="fill:#6d6daa"/><circle cx="6.94455" cy="22.63688" r="3.64286" style="fill:#ff9797" transform="translate(-16.1318 17.33245) rotate(-59.99966)"/><path d="M3.78969,23.81537a3.63351,3.63351,0,0,1,6.46051.308,3.63349,3.63349,0,1,0-6.61133.027A3.56653,3.56653,0,0,1,3.78969,23.81537Z" style="fill:#fff;fill-rule:evenodd;opacity:0.5"/><path d="M30.9834,36a6,6,0,1,1,6-6A6.00656,6.00656,0,0,1,30.9834,36Zm0-10a4,4,0,1,0,4,4A4.00458,4.00458,0,0,0,30.9834,26Z" style="fill:#6d6daa"/><path d="M36.62646,59.14307A4.64307,4.64307,0,1,1,41.26953,54.5,4.6485,4.6485,0,0,1,36.62646,59.14307Zm0-7.28613A2.64307,2.64307,0,1,0,39.26953,54.5,2.6459,2.6459,0,0,0,36.62646,51.85693Z" style="fill:#6d6daa"/><path d="M49.3877,17.50537a4.6418,4.6418,0,1,1,2.31348-.62109A4.64671,4.64671,0,0,1,49.3877,17.50537ZM49.376,10.2207a2.62721,2.62721,0,0,0-1.31738.354h0a2.643,2.643,0,1,0,1.31738-.354ZM47.55859,9.7085h0Z" style="fill:#6d6daa"/><path d="M6.93652,27.27832A4.61552,4.61552,0,0,1,4.623,26.65771h0a4.64746,4.64746,0,1,1,2.31348.62061ZM5.623,24.92529a2.64273,2.64273,0,1,0-.96777-3.60986A2.6465,2.6465,0,0,0,5.623,24.92529Z" style="fill:#6d6daa"/></svg>